<?xml version="1.0" encoding="UTF-8"?>
<svg width="156px" height="40px" viewBox="0 0 156 40" version="1.1" xmlns="http://www.w3.org/2000/svg" xmlns:xlink="http://www.w3.org/1999/xlink">
    <!-- Generator: Sketch 50 (54983) - http://www.bohemiancoding.com/sketch -->
    <title>Group 8@2x</title>
    <desc>Created with Sketch.</desc>
    <defs>
        <linearGradient x1="-78.2883053%" y1="-92.8060282%" x2="185.974107%" y2="230.071478%" id="linearGradient-1">
            <stop stop-color="#FDA23F" offset="0%"></stop>
            <stop stop-color="#F3646F" offset="100%"></stop>
        </linearGradient>
    </defs>
    <g id="-----Web-1440" stroke="none" stroke-width="1" fill="none" fill-rule="evenodd">
        <g id="003-Doneer---Goede-doelen-detail" transform="translate(-1119.000000, -25.000000)">
            <g id="Group-8" transform="translate(1119.000000, 25.000000)">
                <path d="M8,0 L148,0 C152.418278,-8.11624501e-16 156,3.581722 156,8 L156,32 C156,36.418278 152.418278,40 148,40 L8,40 C3.581722,40 5.41083001e-16,36.418278 0,32 L0,8 C-5.41083001e-16,3.581722 3.581722,8.11624501e-16 8,0 Z" id="Rectangle" fill="url(#linearGradient-1)"></path>
                <path d="M48.427,12.681 C49.8203403,12.681 51.0521613,12.9596639 52.1225,13.517 C53.1928387,14.0743361 54.0256637,14.856495 54.621,15.8635 C55.2163363,16.870505 55.514,18.0263268 55.514,19.331 C55.514,20.6356732 55.2131697,21.7946616 54.6115,22.808 C54.0098303,23.8213384 53.1611721,24.6066639 52.0655,25.164 C50.9698279,25.7213361 49.7126738,26 48.294,26 L42.689,26 L42.689,12.681 L48.427,12.681 Z M48.522,23.188 C49.1933367,23.188 49.7886641,23.0296683 50.308,22.713 C50.8273359,22.3963318 51.2326652,21.9466696 51.524,21.364 C51.8153348,20.7813304 51.961,20.1163371 51.961,19.369 C51.961,18.6089962 51.8058349,17.9376696 51.4955,17.355 C51.1851651,16.7723304 50.7576694,16.3195016 50.213,15.9965 C49.6683306,15.6734984 49.0476702,15.512 48.351,15.512 L46.166,15.512 L46.166,23.188 L48.522,23.188 Z M62.012,15.607 C63.1266722,15.607 64.1083291,15.8254978 64.957,16.2625 C65.8056709,16.6995022 66.464331,17.3138294 66.933,18.1055 C67.401669,18.8971706 67.636,19.8123281 67.636,20.851 C67.636,21.9023386 67.401669,22.8238294 66.933,23.6155 C66.464331,24.4071706 65.8056709,25.0214978 64.957,25.4585 C64.1083291,25.8955022 63.1266722,26.114 62.012,26.114 C60.8973278,26.114 59.9156709,25.8955022 59.067,25.4585 C58.2183291,25.0214978 57.5628356,24.4071706 57.1005,23.6155 C56.6381644,22.8238294 56.407,21.9023386 56.407,20.851 C56.407,19.8123281 56.6381644,18.8971706 57.1005,18.1055 C57.5628356,17.3138294 58.2183291,16.6995022 59.067,16.2625 C59.9156709,15.8254978 60.8973278,15.607 62.012,15.607 Z M62.012,18.343 C61.35333,18.343 60.8213354,18.577331 60.416,19.046 C60.0106646,19.514669 59.808,20.1289962 59.808,20.889 C59.808,21.6616705 60.0106646,22.282331 60.416,22.751 C60.8213354,23.219669 61.35333,23.454 62.012,23.454 C62.6833367,23.454 63.2216646,23.219669 63.627,22.751 C64.0323354,22.282331 64.235,21.6616705 64.235,20.889 C64.235,20.1289962 64.0291687,19.514669 63.6175,19.046 C63.2058313,18.577331 62.67067,18.343 62.012,18.343 Z M76.148,15.588 C77.275339,15.588 78.1778299,15.9426631 78.8555,16.652 C79.5331701,17.3613369 79.872,18.3176607 79.872,19.521 L79.872,26 L76.509,26 L76.509,20.49 C76.509,19.9073304 76.3506682,19.4481683 76.034,19.1125 C75.7173317,18.7768317 75.2930027,18.609 74.761,18.609 C74.2036639,18.6216667 73.7445018,18.8053316 73.3835,19.16 C73.0224982,19.5146684 72.8103336,19.9833304 72.747,20.566 L72.747,26 L69.365,26 L69.365,15.721 L72.747,15.721 L72.747,17.393 C73.1143352,16.7976637 73.5861638,16.3480015 74.1625,16.044 C74.7388362,15.7399985 75.4006629,15.588 76.148,15.588 Z M86.693,15.607 C88.3650084,15.607 89.6506622,16.1009951 90.55,17.089 C91.4493378,18.0770049 91.899,19.4323247 91.899,21.155 C91.899,21.4210013 91.8926667,21.623666 91.88,21.763 L84.736,21.763 C84.9006675,22.3456696 85.1856646,22.7921651 85.591,23.1025 C85.9963354,23.4128349 86.4903304,23.568 87.073,23.568 C87.5163355,23.568 87.9438313,23.4793342 88.3555,23.302 C88.7671687,23.1246658 89.1439983,22.8650017 89.486,22.523 L91.253,24.29 C90.7209973,24.8853363 90.0781704,25.3381651 89.3245,25.6485 C88.5708296,25.9588349 87.7190047,26.114 86.769,26.114 C85.6669945,26.114 84.7043374,25.8986688 83.881,25.468 C83.0576626,25.0373312 82.4275022,24.4293373 81.9905,23.644 C81.5534978,22.8586627 81.335,21.9466719 81.335,20.908 C81.335,19.8566614 81.5566644,18.9288374 82,18.1245 C82.4433356,17.3201626 83.0703293,16.6995022 83.881,16.2625 C84.6916707,15.8254978 85.6289947,15.607 86.693,15.607 Z M88.612,19.958 C88.612,19.3626637 88.4378351,18.8845018 88.0895,18.5235 C87.7411649,18.1624982 87.2820028,17.982 86.712,17.982 C86.1799973,17.982 85.7335018,18.1593316 85.3725,18.514 C85.0114982,18.8686684 84.7740006,19.349997 84.66,19.958 L88.612,19.958 Z M98.15,15.607 C99.8220084,15.607 101.107662,16.1009951 102.007,17.089 C102.906338,18.0770049 103.356,19.4323247 103.356,21.155 C103.356,21.4210013 103.349667,21.623666 103.337,21.763 L96.193,21.763 C96.3576675,22.3456696 96.6426646,22.7921651 97.048,23.1025 C97.4533354,23.4128349 97.9473304,23.568 98.53,23.568 C98.9733356,23.568 99.4008313,23.4793342 99.8125,23.302 C100.224169,23.1246658 100.600998,22.8650017 100.943,22.523 L102.71,24.29 C102.177997,24.8853363 101.53517,25.3381651 100.7815,25.6485 C100.02783,25.9588349 99.1760048,26.114 98.226,26.114 C97.1239945,26.114 96.1613375,25.8986688 95.338,25.468 C94.5146625,25.0373312 93.8845022,24.4293373 93.4475,23.644 C93.0104978,22.8586627 92.792,21.9466719 92.792,20.908 C92.792,19.8566614 93.0136644,18.9288374 93.457,18.1245 C93.9003355,17.3201626 94.5273293,16.6995022 95.338,16.2625 C96.1486707,15.8254978 97.0859947,15.607 98.15,15.607 Z M100.069,19.958 C100.069,19.3626637 99.8948351,18.8845018 99.5465,18.5235 C99.1981649,18.1624982 98.7390028,17.982 98.169,17.982 C97.6369973,17.982 97.1905018,18.1593316 96.8295,18.514 C96.4684982,18.8686684 96.2310006,19.349997 96.117,19.958 L100.069,19.958 Z M108.467,17.431 C108.821668,16.8356637 109.280831,16.3796683 109.8445,16.063 C110.408169,15.7463317 111.050996,15.588 111.773,15.588 L111.773,18.685 C111.658999,18.6723333 111.488001,18.666 111.26,18.666 C110.461996,18.666 109.816002,18.8528315 109.322,19.2265 C108.827998,19.6001685 108.543,20.1099968 108.467,20.756 L108.467,26 L105.085,26 L105.085,15.721 L108.467,15.721 L108.467,17.431 Z M124.256,15.588 C125.383339,15.588 126.28583,15.9426631 126.9635,16.652 C127.64117,17.3613369 127.98,18.3176607 127.98,19.521 L127.98,26 L124.617,26 L124.617,20.49 C124.617,19.9073304 124.458668,19.4481683 124.142,19.1125 C123.825332,18.7768317 123.401003,18.609 122.869,18.609 C122.311664,18.6216667 121.852502,18.8053316 121.4915,19.16 C121.130498,19.5146684 120.918334,19.9833304 120.855,20.566 L120.855,26 L117.473,26 L117.473,15.721 L120.855,15.721 L120.855,17.393 C121.222335,16.7976637 121.694164,16.3480015 122.2705,16.044 C122.846836,15.7399985 123.508663,15.588 124.256,15.588 Z M140.311,15.721 L140.311,26 L136.929,26 L136.929,24.328 C136.23233,25.5186726 135.136674,26.1266665 133.642,26.152 C132.527328,26.152 131.637503,25.7941702 130.9725,25.0785 C130.307497,24.3628298 129.975,23.4096726 129.975,22.219 L129.975,15.721 L133.357,15.721 L133.357,21.25 C133.357,21.8326696 133.505832,22.288665 133.8035,22.618 C134.101168,22.947335 134.503331,23.112 135.01,23.112 C135.605336,23.0993333 136.073998,22.8808355 136.416,22.4565 C136.758002,22.0321645 136.929,21.4780034 136.929,20.794 L136.929,15.721 L140.311,15.721 Z" id="Doneer-nu" fill="#FFFFFF"></path>
                <g id="Page-1" transform="translate(16.000000, 15.000000)" stroke="#FFFFFF" stroke-linecap="round" stroke-linejoin="round" stroke-width="2">
                    <path d="M11,5 L0,5" id="Stroke-1"></path>
                    <polyline id="Stroke-3" points="6 0 12 5 6.3345166 10"></polyline>
                </g>
            </g>
        </g>
    </g>
</svg>