<svg xmlns="http://www.w3.org/2000/svg" xmlns:xlink="http://www.w3.org/1999/xlink" width="64" height="29" viewBox="0 0 64 29">
    <defs>
        <path id="a" d="M0 .366h62.083V23.97H0z"/>
    </defs>
    <g fill="none" fill-rule="evenodd">
        <path fill="#FFF" d="M51.873 9.735l-1.015.088.213 2.444 1.015-.088c1.029-.09 1.552-.579 1.477-1.434-.074-.855-.661-1.1-1.69-1.01M19.765 12.503c-1.189.103-1.846 1.21-1.695 2.947.152 1.75.997 2.794 2.186 2.69 1.189-.103 1.84-1.277 1.688-3.027-.151-1.737-.99-2.713-2.18-2.61"/>
        <g transform="rotate(-5 55.614 2.017)">
            <mask id="b" fill="#fff">
                <use xlink:href="#a"/>
            </mask>
            <path fill="#FFF" d="M52.955 16.554l-1.675-3.152h-1.086l-.001 3.15H48.22l.004-8.743 3.151.002c1.851 0 3.366.644 3.365 2.724 0 1.286-.618 2.104-1.556 2.52l1.983 3.5-2.213-.001zm-6.478-.003l-5.605-.002.004-8.743 5.471.003V9.47l-3.501-.001-.001 1.756 2.977.002v1.649l-2.977-.002-.001 2.012 3.634.002-.001 1.662zm-7.35-.003l-5.604-.003.003-8.742 5.471.003v1.662l-3.5-.002-.001 1.757 2.977.001-.001 1.65-2.977-.002-.001 2.012 3.634.002v1.662zm-7.671-.003H29.43l-2.277-4.36-.857-1.905h-.054c.08.966.24 2.132.24 3.165l-.002 3.098-1.877-.001.004-8.743h2.025l2.277 4.346.857 1.932h.054c-.08-.926-.24-2.159-.24-3.191l.002-3.084h1.876l-.003 8.743zm-12.471.155c-2.361 0-3.97-1.718-3.968-4.574.001-2.857 1.61-4.492 3.971-4.49 2.36 0 3.969 1.65 3.967 4.493 0 2.856-1.61 4.572-3.97 4.57zm-9.496-.164l-2.574-.002.004-8.743 2.467.002c2.668.001 4.384 1.329 4.383 4.333-.002 3.003-1.718 4.41-4.28 4.41zm52.575-12.75a3.424 3.424 0 0 0-3.428-3.42L3.42.428A3.424 3.424 0 0 0 0 3.856L.019 20.55a3.424 3.424 0 0 0 3.428 3.42l55.215-.062a3.424 3.424 0 0 0 3.42-3.428l-.018-16.693z" mask="url(#b)"/>
        </g>
        <path fill="#FFF" d="M10.083 13.4l-.374.032.482 5.53.374-.032c1.483-.129 2.408-.936 2.227-3.02-.182-2.084-1.226-2.64-2.709-2.51"/>
    </g>
</svg>
