<svg xmlns="http://www.w3.org/2000/svg" xmlns:xlink="http://www.w3.org/1999/xlink" width="98" height="76" viewBox="0 0 98 76">
    <defs>
        <path id="a" d="M0 .564h95.371v36.333H0z"/>
    </defs>
    <g fill="none" fill-rule="evenodd">
        <path fill="#FDA23F" d="M9.68 3.894c0-.435.207-.883.618-1.344.412-.46.815-.69 1.21-.69.393 0 .862.452 1.405 1.356.543.905.815 1.562.815 1.972 0 .41-.14.725-.42.943-.28.217-.57.326-.868.326-.508 0-1.095-.318-1.76-.954-.666-.637-1-1.173-1-1.609zm.395 3.141c.613 0 1.16.335 1.642 1.005.482.67.723 1.315.723 1.935 0 .318-.302 1.461-.906 3.43a205.778 205.778 0 0 1-1.8 5.59c-.211.653-.64.98-1.289.98-.385 0-.722-.138-1.011-.415-.29-.276-.434-.636-.434-1.08 0-.444.223-1.55.67-3.317a78.783 78.783 0 0 0 1.025-4.522c.237-1.248.456-2.161.657-2.739.202-.578.443-.867.723-.867zM16.382 20c-.403 0-.906-.31-1.51-.93-.605-.62-.907-1.114-.907-1.482 0-.1.293-1.097.88-2.99.587-1.893 1.174-4.17 1.76-6.834.588-2.664.881-4.992.881-6.985 0-.52.245-.779.736-.779.42 0 .977.364 1.669 1.093.692.729 1.038 1.411 1.038 2.048 0 .921-.346 2.663-1.038 5.226-.692 2.563-1.38 4.581-2.063 6.055.228-.285.539-.666.933-1.143s.714-.867.96-1.168c.244-.302.547-.67.906-1.106.359-.435.661-.791.907-1.068.245-.276.516-.586.814-.93.298-.343.557-.62.776-.829.219-.209.442-.406.67-.59.42-.369.744-.553.972-.553.438 0 .92.28 1.446.842.525.561.788 1.051.788 1.47 0 .167-.372.552-1.117 1.156a30.222 30.222 0 0 0-2.234 2.01c-.744.737-1.117 1.394-1.117 1.972 0 .578.18 1.139.539 1.683.36.545.749.96 1.17 1.244.42.285.81.574 1.169.867.36.293.539.54.539.741 0 .653-.465.98-1.393.98-1.104 0-2.567-.888-4.39-2.663l-.63-.603C17.96 18.91 16.908 20 16.382 20zM66.012 76c-.579 0-1.226-.36-1.94-1.081-.715-.721-1.072-1.345-1.072-1.872 0-.527.226-1.053.678-1.58.453-.527.91-.79 1.37-.79.462 0 .982.517 1.56 1.552.58 1.035.87 1.82.87 2.357 0 .277-.168.582-.503.915-.334.333-.655.499-.963.499zM79.2 61.222c.94 0 1.768.43 2.482 1.29.715.859 1.072 1.778 1.072 2.758 0 1.571-.249 3.212-.746 4.921-.497 1.71-1.04 3.027-1.628 3.951-.588.925-1.185 1.387-1.791 1.387-.606 0-.909-.435-.909-1.303 0-.666.298-2.006.895-4.02.453-1.664.679-2.857.679-3.578 0-.72-.09-1.08-.272-1.08-.235 0-.465.12-.691.36-.227.24-.412.452-.557.637-.144.185-.312.42-.502.707s-.353.546-.488.777c-.136.23-.308.526-.516.887-.208.36-.375.656-.502.887-.126.231-.29.532-.488.901-1.683 3.217-3.003 4.825-3.962 4.825-.38 0-.86-.338-1.438-1.012-.579-.675-.868-1.17-.868-1.484 0-.203.13-.642.393-1.317a32.24 32.24 0 0 0 .57-1.552c.118-.36.217-.744.298-1.151.082-.407.15-.846.204-1.317.054-.471.095-.836.122-1.095.027-.259.059-.666.095-1.22.163-2.403.303-3.734.42-3.993.118-.259.25-.388.394-.388.688 0 1.348.291 1.98.873.634.583.95 1.114.95 1.595 0 1.146-.289 2.79-.868 4.935 1.176-2.107 2.248-3.83 3.216-5.171.968-1.34 1.786-2.01 2.456-2.01zm14.57.693c.146-.462.435-.693.87-.693.433 0 .935.379 1.505 1.137.57.757.855 1.414.855 1.968 0 .204-.416 1.562-1.248 4.076a342.89 342.89 0 0 0-1.927 5.961c-.253.776-.678 1.165-1.275 1.165a1.18 1.18 0 0 1-.91-.402c-.243-.268-.365-.689-.365-1.262 0-.573.108-1.386.325-2.44-1.863 2.736-3.346 4.104-4.45 4.104-.579 0-1.275-.384-2.09-1.151-.813-.767-1.22-1.511-1.22-2.232 0-1.774.493-4.039 1.478-6.793.986-2.754 1.913-4.131 2.782-4.131.524 0 .99.24 1.397.72.407.481.61 1.008.61 1.581 0 .222-.225.841-.678 1.858-1.374 3.05-2.062 5.203-2.062 6.46 0 .11.045.166.136.166.271 0 .782-.439 1.533-1.317.75-.878 1.592-2.135 2.523-3.77a26.197 26.197 0 0 0 2.212-5.005zM79.127 32.879l-1.56.136.327 3.761 1.56-.136c1.58-.137 2.384-.89 2.27-2.205-.116-1.317-1.017-1.694-2.597-1.556M29.802 37.131c-1.827.159-2.836 1.862-2.603 4.536.234 2.694 1.532 4.301 3.359 4.142 1.826-.16 2.826-1.966 2.592-4.66-.233-2.674-1.521-4.177-3.348-4.018"/>
        <g transform="rotate(-5 290.082 18.5)">
            <mask id="b" fill="#fff">
                <use xlink:href="#a"/>
            </mask>
            <path fill="#FDA23F" d="M81.35 25.482l-2.574-4.851-1.668-.001-.002 4.85-3.028-.002.006-13.458 4.84.003c2.843.001 5.17.992 5.17 4.193-.002 1.98-.95 3.24-2.392 3.879l3.047 5.388-3.4-.001zm-9.952-.005l-8.61-.003.005-13.458 8.405.004-.001 2.559-5.377-.002-.002 2.704 4.574.002-.001 2.538-4.573-.002-.002 3.096 5.583.003-.001 2.56zm-11.291-.004l-8.61-.004.005-13.457 8.406.003v2.56l-5.379-.003v2.704l4.573.002-.002 2.538-4.573-.002-.001 3.097 5.582.003-.001 2.559zm-11.785-.005l-3.11-.001-3.498-6.71-1.317-2.932h-.083c.123 1.486.369 3.28.368 4.87l-.002 4.77-2.883-.002.005-13.458 3.11.002 3.5 6.688 1.317 2.974h.083c-.123-1.425-.37-3.323-.369-4.913l.002-4.747h2.883l-.006 13.459zm-19.158.238c-3.626 0-6.097-2.644-6.095-7.04.002-4.398 2.475-6.914 6.101-6.912 3.625 0 6.096 2.54 6.094 6.917-.002 4.396-2.475 7.037-6.1 7.035zm-14.587-.253l-3.954-.002.005-13.458 3.79.002c4.1.002 6.735 2.046 6.733 6.67-.002 4.623-2.638 6.79-6.574 6.788zM95.342 5.828A5.265 5.265 0 0 0 90.076.564L5.254.659A5.266 5.266 0 0 0 0 5.936l.029 25.696a5.266 5.266 0 0 0 5.266 5.265l84.822-.096a5.265 5.265 0 0 0 5.254-5.277l-.029-25.696z" mask="url(#b)"/>
        </g>
        <path fill="#FDA23F" d="M14.929 38.508l-.575.05.741 8.514.575-.05c2.278-.198 3.7-1.44 3.42-4.648-.279-3.209-1.883-4.064-4.161-3.866"/>
    </g>
</svg>
