<?xml version="1.0" encoding="UTF-8"?>
<svg width="83px" height="66px" viewBox="0 0 83 66" version="1.1" xmlns="http://www.w3.org/2000/svg" xmlns:xlink="http://www.w3.org/1999/xlink">
    <!-- Generator: Sketch 50 (54983) - http://www.bohemiancoding.com/sketch -->
    <title>Group 3@2x</title>
    <desc>Created with Sketch.</desc>
    <defs>
        <linearGradient x1="-70.3296105%" y1="-80.3493545%" x2="177.590368%" y2="146.847924%" id="linearGradient-1">
            <stop stop-color="#FDA23F" offset="0%"></stop>
            <stop stop-color="#F3646F" offset="100%"></stop>
        </linearGradient>
    </defs>
    <g id="-----Styleguide" stroke="none" stroke-width="1" fill="none" fill-rule="evenodd">
        <g id="Styleguide---kleuren" transform="translate(-318.000000, -846.000000)">
            <g id="Group" transform="translate(272.000000, 790.000000)">
                <g id="Group-3" transform="translate(46.000000, 56.000000)">
                    <g id="Group-2" transform="translate(41.652702, 34.727805) rotate(-5.000000) translate(-41.652702, -34.727805) translate(1.652702, 18.727805)">
                        <path d="M5,0 L74.7128713,0 C77.474295,-5.07265313e-16 79.7128713,2.23857625 79.7128713,5 L79.7128713,26.7777778 C79.7128713,29.5392015 77.474295,31.7777778 74.7128713,31.7777778 L5,31.7777778 C2.23857625,31.7777778 3.38176876e-16,29.5392015 0,26.7777778 L0,5 C-3.38176876e-16,2.23857625 2.23857625,5.07265313e-16 5,0 Z M16.3680686,10.0470741 L11.4883483,10.0470741 L11.4883483,21.1851852 L16.2549625,21.1851852 C17.4614336,21.1851852 18.5305449,20.9521505 19.4623284,20.4860741 C20.3941119,20.0199977 21.1158293,19.3632635 21.6275023,18.5158519 C22.1391754,17.6684402 22.395008,16.6992277 22.395008,15.6081852 C22.395008,14.5171427 22.1418683,13.5505783 21.6355813,12.708463 C21.1292944,11.8663476 20.4210418,11.2122616 19.5108024,10.7461852 C18.6005631,10.2801088 17.5529956,10.0470741 16.3680686,10.0470741 Z M27.921049,12.493963 C26.9731074,12.493963 26.138285,12.6766834 25.4165567,13.0421296 C24.6948285,13.4075759 24.1373826,13.9213115 23.7442022,14.5833519 C23.3510219,15.2453922 23.1544347,16.0106994 23.1544347,16.8792963 C23.1544347,17.7584859 23.3510219,18.5290893 23.7442022,19.1911296 C24.1373826,19.85317 24.6948285,20.3669056 25.4165567,20.7323519 C26.138285,21.0977981 26.9731074,21.2805185 27.921049,21.2805185 C28.8689906,21.2805185 29.703813,21.0977981 30.4255412,20.7323519 C31.1472695,20.3669056 31.7074084,19.85317 32.1059747,19.1911296 C32.5045411,18.5290893 32.7038212,17.7584859 32.7038212,16.8792963 C32.7038212,16.0106994 32.5045411,15.2453922 32.1059747,14.5833519 C31.7074084,13.9213115 31.1472695,13.4075759 30.4255412,13.0421296 C29.703813,12.6766834 28.8689906,12.493963 27.921049,12.493963 Z M39.9426117,12.4780741 C39.30706,12.4780741 38.7442281,12.6051839 38.2540992,12.8594074 C37.7639703,13.1136309 37.362717,13.4896642 37.0503271,13.9875185 L37.0503271,12.5892963 L34.1742006,12.5892963 L34.1742006,21.1851852 L37.0503271,21.1851852 L37.0503271,16.640963 C37.1041875,16.1537013 37.2846168,15.7617793 37.5916206,15.4651852 C37.8986244,15.1685911 38.2891059,15.0150001 38.7630767,15.0044074 C39.2155033,15.0044074 39.576362,15.1447579 39.8456636,15.425463 C40.1149652,15.7061681 40.249614,16.0901457 40.249614,16.5774074 L40.249614,21.1851852 L43.1095826,21.1851852 L43.1095826,15.7670741 C43.1095826,14.7607727 42.8214342,13.96104 42.2451288,13.3678519 C41.6688234,12.7746637 40.9013254,12.4780741 39.9426117,12.4780741 Z M48.9103097,12.493963 C48.0054564,12.493963 47.2083357,12.6766834 46.5189236,13.0421296 C45.8295115,13.4075759 45.2963024,13.9266077 44.9192802,14.5992407 C44.5422579,15.2718737 44.3537497,16.0477734 44.3537497,16.926963 C44.3537497,17.7955599 44.539565,18.5582189 44.9112012,19.214963 C45.2828374,19.871707 45.8187395,20.3801463 46.5189236,20.7402963 C47.2191077,21.1004462 48.0377723,21.2805185 48.9749418,21.2805185 C49.7828466,21.2805185 50.507257,21.1507606 51.1481947,20.8912407 C51.7891325,20.6317209 52.3358065,20.2530395 52.7882332,19.7551852 L51.2855379,18.2775185 C50.9946922,18.5635199 50.6742281,18.7806659 50.324136,18.928963 C49.9740439,19.07726 49.6104923,19.1514074 49.23347,19.1514074 C48.7379551,19.1514074 48.3178509,19.0216494 47.9731449,18.7621296 C47.6284389,18.5026098 47.3860711,18.1292247 47.2460343,17.641963 L53.3214477,17.641963 C53.3322197,17.5254439 53.3376057,17.3559641 53.3376057,17.1335185 C53.3376057,15.6929187 52.9552032,14.5595226 52.1903867,13.7332963 C51.4255702,12.9070699 50.3322221,12.493963 48.9103097,12.493963 Z M58.6535925,12.493963 C57.7487391,12.493963 56.9516184,12.6766834 56.2622063,13.0421296 C55.5727943,13.4075759 55.0395851,13.9266077 54.6625629,14.5992407 C54.2855407,15.2718737 54.0970324,16.0477734 54.0970324,16.926963 C54.0970324,17.7955599 54.2828477,18.5582189 54.6544839,19.214963 C55.0261201,19.871707 55.5620222,20.3801463 56.2622063,20.7402963 C56.9623904,21.1004462 57.781055,21.2805185 58.7182245,21.2805185 C59.5261293,21.2805185 60.2505397,21.1507606 60.8914775,20.8912407 C61.5324152,20.6317209 62.0790893,20.2530395 62.5315159,19.7551852 L61.0288206,18.2775185 C60.7379749,18.5635199 60.4175108,18.7806659 60.0674187,18.928963 C59.7173267,19.07726 59.353775,19.1514074 58.9767527,19.1514074 C58.4812378,19.1514074 58.0611336,19.0216494 57.7164276,18.7621296 C57.3717216,18.5026098 57.1293538,18.1292247 56.989317,17.641963 L63.0647304,17.641963 C63.0755025,17.5254439 63.0808884,17.3559641 63.0808884,17.1335185 C63.0808884,15.6929187 62.6984859,14.5595226 61.9336694,13.7332963 C61.1688529,12.9070699 60.0755048,12.493963 58.6535925,12.493963 Z M67.4273943,14.0192963 L67.4273943,12.5892963 L64.5512677,12.5892963 L64.5512677,21.1851852 L67.4273943,21.1851852 L67.4273943,16.7998519 C67.4920267,16.2596269 67.7343945,15.8332793 68.154505,15.5207963 C68.5746154,15.2083133 69.1239824,15.0520741 69.8026224,15.0520741 C69.9965196,15.0520741 70.1419402,15.0573703 70.2388888,15.067963 L70.2388888,12.4780741 C69.6248812,12.4780741 69.0782072,12.6104802 68.5988503,12.8752963 C68.1194935,13.1401124 67.7290121,13.521442 67.4273943,14.0192963 Z" id="Combined-Shape" fill="url(#linearGradient-1)"></path>
                        <path d="M16.4488587,18.8336296 C17.0197781,18.8336296 17.5260575,18.7012235 17.9677121,18.4364074 C18.4093667,18.1715913 18.7540675,17.795558 19.001825,17.3082963 C19.2495825,16.8210346 19.3734593,16.2649291 19.3734593,15.639963 C19.3734593,15.0044042 19.2415035,14.4430024 18.977588,13.9557407 C18.7136724,13.468479 18.3501207,13.0897976 17.886922,12.8196852 C17.4237233,12.5495727 16.8959001,12.4145185 16.3034366,12.4145185 L14.4452649,12.4145185 L14.4452649,18.8336296 L16.4488587,18.8336296 Z" id="Path" fill="#F88356"></path>
                        <path d="M27.921049,14.781963 C27.3609017,14.781963 26.9084818,14.977924 26.5637758,15.3698519 C26.2190697,15.7617797 26.0467193,16.2755153 26.0467193,16.9110741 C26.0467193,17.5572255 26.2190697,18.0762573 26.5637758,18.4681852 C26.9084818,18.8601131 27.3609017,19.0560741 27.921049,19.0560741 C28.4919683,19.0560741 28.9497742,18.8601131 29.2944802,18.4681852 C29.6391862,18.0762573 29.8115367,17.5572255 29.8115367,16.9110741 C29.8115367,16.2755153 29.6364933,15.7617797 29.2864012,15.3698519 C28.9363091,14.977924 28.4811963,14.781963 27.921049,14.781963 Z" id="Path" fill="#F88356"></path>
                        <path d="M50.5422692,16.1325185 C50.5422692,15.6346642 50.3941555,15.2347978 50.0979238,14.9329074 C49.8016921,14.631017 49.4112106,14.4800741 48.9264678,14.4800741 C48.4740411,14.4800741 48.0943315,14.6283689 47.7873277,14.924963 C47.4803239,15.221557 47.2783508,15.6240715 47.1814022,16.1325185 L50.5422692,16.1325185 Z" id="Path" fill="#F88356"></path>
                        <path d="M60.2855519,16.1325185 C60.2855519,15.6346642 60.1374383,15.2347978 59.8412065,14.9329074 C59.5449748,14.631017 59.1544933,14.4800741 58.6697505,14.4800741 C58.2173238,14.4800741 57.8376143,14.6283689 57.5306104,14.924963 C57.2236066,15.221557 57.0216335,15.6240715 56.9246849,16.1325185 L60.2855519,16.1325185 Z" id="Path" fill="#F88356"></path>
                    </g>
                    <path d="M5.60021337,3.33193747 C5.60021337,2.95933184 5.77785045,2.57598373 6.13312994,2.18188163 C6.48840942,1.78777953 6.83612455,1.59073143 7.17628576,1.59073143 C7.51644697,1.59073143 7.92085479,1.97766224 8.38952134,2.75153546 C8.8581879,3.52540867 9.09251766,4.08789141 9.09251766,4.43900056 C9.09251766,4.7901097 8.97157327,5.05881165 8.72968085,5.24511446 C8.48778844,5.43141727 8.23834062,5.52456728 7.98132993,5.52456728 C7.54289993,5.52456728 7.03644528,5.25228264 6.46195079,4.70770519 C5.88745631,4.16312774 5.60021337,3.70454309 5.60021337,3.33193747 Z M5.94037288,6.01898381 C6.46951254,6.01898381 6.94195158,6.30559922 7.35770417,6.87883864 C7.77345676,7.45207806 7.98132993,8.00381272 7.98132993,8.53405918 C7.98132993,8.80634791 7.72054358,9.784423 7.19896306,11.4683138 C6.67738254,13.1522046 6.15958936,14.7465028 5.64556797,16.2512563 C5.46414866,16.8101647 5.09375646,17.0896147 4.53438024,17.0896147 C4.20177817,17.0896147 3.91075573,16.9713859 3.66130417,16.7349246 C3.41185262,16.4984634 3.28712871,16.1903518 3.28712871,15.8105807 C3.28712871,15.4308096 3.47988384,14.4849787 3.86539988,12.9730597 C4.25091592,11.4611408 4.54571787,10.1713714 4.7498146,9.10371301 C4.95391133,8.03605459 5.14288694,7.2550276 5.31674711,6.7606086 C5.49060729,6.2661896 5.69848047,6.01898381 5.94037288,6.01898381 Z M11.382925,17.1111111 C11.0352047,17.1111111 10.6005608,16.8459919 10.0789802,16.3157454 C9.55739972,15.7854989 9.29661337,15.3627412 9.29661337,15.0474595 C9.29661337,14.9614736 9.54984069,14.1087928 10.0563029,12.4893914 C10.5627652,10.86999 11.0692198,8.92100525 11.5756821,6.64237856 C12.0821443,4.36375187 12.3353716,2.37177477 12.3353716,0.666387493 C12.3353716,0.222126943 12.5470243,0 12.9703361,0 C13.3331747,0 13.8131727,0.311694259 14.4103446,0.935092127 C15.0075165,1.55849 15.306098,2.14246889 15.306098,2.68704634 C15.306098,3.47525054 15.0075165,4.96565068 14.4103446,7.15829146 C13.8131727,9.35093224 13.2197893,11.0777901 12.6301766,12.3389168 C12.8267141,12.0952901 13.0950595,11.769265 13.4352207,11.3608319 C13.7753819,10.9523989 14.0512863,10.6192084 14.2629422,10.3612507 C14.4745981,10.103293 14.7353844,9.78801601 15.0453091,9.41541039 C15.3552337,9.04280476 15.6160201,8.73827589 15.8276759,8.50181463 C16.0393318,8.26535337 16.2736616,8.00023411 16.5306723,7.70644891 C16.7876829,7.41266371 17.0106742,7.176206 17.1996526,6.99706868 C17.3886311,6.81793136 17.5813862,6.6495448 17.7779238,6.49190396 C18.1407624,6.17662228 18.4204463,6.01898381 18.6169839,6.01898381 C18.9949408,6.01898381 19.4106872,6.25902421 19.8642354,6.73911223 C20.3177837,7.21920024 20.5445545,7.63837528 20.5445545,7.99664992 C20.5445545,8.13995977 20.2232959,8.46956749 19.5807692,8.98548297 C18.9382425,9.50139845 18.2957254,10.0746293 17.6531986,10.7051926 C17.0106719,11.335756 16.6894134,11.8982387 16.6894134,12.3926577 C16.6894134,12.8870767 16.8443734,13.3671575 17.154298,13.8329146 C17.4642227,14.2986716 17.8005993,14.6533582 18.1634379,14.8969849 C18.5262765,15.1406117 18.8626531,15.3878175 19.1725778,15.6386097 C19.4825024,15.889402 19.6374624,16.1007808 19.6374624,16.2727527 C19.6374624,16.8316611 19.2368341,17.1111111 18.4355655,17.1111111 C17.4831141,17.1111111 16.220757,16.3515803 14.6484563,14.8324958 L14.1042011,14.3165829 C12.7435563,16.179611 11.8364733,17.1111111 11.382925,17.1111111 Z" id="ik" fill="#F88356"></path>
                    <path d="M55.2148428,66 C54.7111462,66 54.148431,65.6867287 53.5266805,65.0601766 C52.90493,64.4336246 52.5940594,63.8914242 52.5940594,63.4335593 C52.5940594,62.9756943 52.7908129,62.5178362 53.1843259,62.0599712 C53.5778389,61.6021063 53.9752811,61.3731772 54.3766643,61.3731772 C54.7780476,61.3731772 55.2305807,61.8230027 55.7342773,62.7226672 C56.237974,63.6223317 56.4898185,64.3051025 56.4898185,64.7710002 C56.4898185,65.0119818 56.3442209,65.2770575 56.0530213,65.5662354 C55.7618217,65.8554132 55.4824316,66 55.2148428,66 Z M66.6896241,53.1557472 C67.5081311,53.1557472 68.2282491,53.5292631 68.8499996,54.2763059 C69.4717501,55.0233487 69.7826207,55.8225922 69.7826207,56.6740604 C69.7826207,58.0396225 69.5661918,59.4654087 69.1333275,60.9514616 C68.7004633,62.4375146 68.2282548,63.5821598 67.7166879,64.3854316 C67.205121,65.1887035 66.6856916,65.5903334 66.1583842,65.5903334 C65.6310768,65.5903334 65.3674271,65.2128013 65.3674271,64.4577257 C65.3674271,63.87937 65.6271418,62.7146433 66.1465789,60.9635106 C66.5400919,59.5176213 66.7368454,58.4814162 66.7368454,57.8548641 C66.7368454,57.2283121 66.658144,56.9150407 66.5007388,56.9150407 C66.2961121,56.9150407 66.0954235,57.0194645 65.898667,57.2283152 C65.7019105,57.4371659 65.5405726,57.6219156 65.4146484,57.78257 C65.2887243,57.9432244 65.1431266,58.1480556 64.9778512,58.3970699 C64.8125757,58.6460842 64.6709132,58.8709969 64.5528593,59.0718149 C64.4348054,59.2726328 64.2852727,59.529676 64.1042567,59.842952 C63.9232407,60.156228 63.7776431,60.4132712 63.6674595,60.6140891 C63.5572758,60.8149071 63.4156133,61.0759665 63.2424676,61.3972753 C61.7785993,64.1926613 60.6295586,65.5903334 59.7953111,65.5903334 C59.4647601,65.5903334 59.0476426,65.2971436 58.543946,64.7107551 C58.0402494,64.1243667 57.7884049,63.6946227 57.7884049,63.4215102 C57.7884049,63.2447904 57.9025219,62.863242 58.1307594,62.2768536 C58.358997,61.6904651 58.52427,61.2406396 58.6265833,60.9273636 C58.7288967,60.6140876 58.8154683,60.2807347 58.8863006,59.9272951 C58.9571329,59.5738555 59.016159,59.1923071 59.0633806,58.7826385 C59.1106021,58.3729698 59.1460178,58.0556822 59.1696285,57.8307661 C59.1932393,57.60585 59.2207848,57.2524156 59.2522658,56.7704525 C59.3939305,54.6819457 59.5159177,53.5252516 59.6182311,53.3003355 C59.7205445,53.0754193 59.8346615,52.962963 59.9605857,52.962963 C60.5587254,52.962963 61.1332458,53.2159898 61.6841639,53.7220511 C62.2350821,54.2281123 62.5105371,54.6899867 62.5105371,55.1076881 C62.5105371,56.1037452 62.2586926,57.5335477 61.7549959,59.3971384 C62.7781297,57.5656785 63.7107415,56.067599 64.5528593,54.9028548 C65.3949771,53.7381106 66.1072249,53.1557472 66.6896241,53.1557472 Z M79.3685491,53.7581981 C79.4944733,53.3565622 79.7463178,53.1557472 80.1240903,53.1557472 C80.5018628,53.1557472 80.9386556,53.4850838 81.434482,54.1437667 C81.9303084,54.8024496 82.1782178,55.3727641 82.1782178,55.8547272 C82.1782178,56.031447 81.8161913,57.2122389 81.0921274,59.3971384 C80.3680635,61.5820378 79.8092835,63.3090464 79.4157705,64.5782159 C79.1954032,65.2529643 78.8255065,65.5903334 78.3060694,65.5903334 C77.991259,65.5903334 77.7276093,65.4738607 77.5151122,65.2409119 C77.3026152,65.0079631 77.1963683,64.6424798 77.1963683,64.1444513 C77.1963683,63.6464227 77.29081,62.9395541 77.4796963,62.0238242 C75.8584227,64.4015089 74.5677195,65.5903334 73.6075478,65.5903334 C73.1038512,65.5903334 72.4978503,65.2569806 71.7895269,64.5902649 C71.0812035,63.9235493 70.7270472,63.2769252 70.7270472,62.6503731 C70.7270472,61.1080911 71.1559699,59.1401046 72.0138282,56.7463545 C72.8716865,54.3526044 73.678376,53.1557472 74.433921,53.1557472 C74.890396,53.1557472 75.2957083,53.3645948 75.64987,53.7822962 C76.0040317,54.1999975 76.1811099,54.6578556 76.1811099,55.1558842 C76.1811099,55.3486694 75.9843563,55.8868535 75.5908434,56.7704525 C74.3945639,59.4212496 73.7964331,61.292845 73.7964331,62.3852947 C73.7964331,62.4816873 73.8357838,62.5298829 73.9144864,62.5298829 C74.1505942,62.5298829 74.5952572,62.1483345 75.2484888,61.3852263 C75.9017203,60.622118 76.6336435,59.5296847 77.4442803,58.1078935 C78.254917,56.6861023 78.8963336,55.2362183 79.3685491,53.7581981 Z" id=".nu" fill="#F88356"></path>
                </g>
            </g>
        </g>
    </g>
</svg>