<svg xmlns="http://www.w3.org/2000/svg" width="93" height="89" viewBox="0 0 93 89">
    <defs>
        <linearGradient id="a" x1="0%" x2="110.354%" y1="0%" y2="122.826%">
            <stop offset="0%" stop-color="#FDA23F"/>
            <stop offset="100%" stop-color="#F3646F"/>
        </linearGradient>
    </defs>
    <path fill="url(#a)" fill-rule="evenodd" d="M358.776 1125c-7.91.017-15.495 4.982-18.03 13.231l-12.828 40.108a18.63 18.63 0 0 0-.918 5.732v.061c.014 8.31 5.658 15.921 14.207 18.155l42.635 11.115c8.554 2.175 17.562-1.719 21.724-9.512l12.25-23.147h.001a18.968 18.968 0 0 0 2.183-8.766v-.117c-.02-6.103-3-12.03-8.42-15.639l-42.176-27.963A18.828 18.828 0 0 0 358.86 1125h-.084z" transform="translate(-327 -1125)"/>
</svg>
