<svg xmlns="http://www.w3.org/2000/svg" width="46" height="45" viewBox="0 0 46 45">
    <path fill="none" fill-rule="evenodd" stroke="#FFF" stroke-width="2.75" d="M23 3.267c-11.242 0-19.726 6.814-19.726 15.856 0 4.2 1.436 9.918 8.279 13.278a.641.641 0 0 1 .354.568v8.222l9.378-6.165a.557.557 0 0 1 .385-.103l.237.011c.36.018.727.043 1.093.043 11.25 0 19.727-6.82 19.727-15.854C42.727 10.08 34.25 3.267 23 3.267zM11.266 43a.638.638 0 0 1-.633-.63v-9.012C5.064 30.474 2 25.436 2 19.123 2 9.363 11.03 2 23 2c11.977 0 21 7.364 21 17.123 0 9.757-9.023 17.116-21 17.116-.391 0-.776-.02-1.161-.04l-.026-.006-10.192 6.703a.663.663 0 0 1-.355.104z"/>
</svg>
