<?xml version="1.0" encoding="UTF-8"?>
<svg width="24px" height="24px" viewBox="0 0 24 24" version="1.1" xmlns="http://www.w3.org/2000/svg" xmlns:xlink="http://www.w3.org/1999/xlink">
    <!-- Generator: Sketch 50 (54983) - http://www.bohemiancoding.com/sketch -->
    <title>Facebook</title>
    <desc>Created with Sketch.</desc>
    <defs></defs>
    <g id="-----Web-1440" stroke="none" stroke-width="1" fill="none" fill-rule="evenodd">
        <g id="004-Doneer---Doneerformulier-04" transform="translate(-1104.000000, -708.000000)" fill="#F88356">
            <g id="Social-Media" transform="translate(915.000000, 703.000000)">
                <path d="M191.25,8.15277778 C191.25,7.65498611 191.654986,7.25 192.152778,7.25 L209.847222,7.25 C210.345014,7.25 210.75,7.65498611 210.75,8.15277778 L210.75,25.8472222 C210.75,26.3450139 210.345014,26.75 209.847222,26.75 L204.701389,26.75 L204.701389,19.3923611 L207.490521,19.3923611 L207.951389,16.59375 L204.701389,16.59375 L204.701389,14.6527778 C204.701389,13.8865451 205.289323,13.2986111 206.055556,13.2986111 L207.90625,13.2986111 L207.90625,10.5 L206.055556,10.5 C203.756948,10.5 201.903771,12.3619792 201.903771,14.6606319 L201.903771,16.59375 L199.194444,16.59375 L199.194444,19.3923611 L201.903771,19.3923611 L201.903771,26.75 L192.152778,26.75 C191.654986,26.75 191.25,26.3450139 191.25,25.8472222 M191.8125,5 C190.261687,5 189,6.2616875 189,7.8125 L189,26.1875 C189,27.7383125 190.261687,29 191.8125,29 L210.1875,29 C211.738313,29 213,27.7383125 213,26.1875 L213,7.8125 C213,6.2616875 211.738313,5 210.1875,5 L191.8125,5 Z" id="Facebook"></path>
            </g>
        </g>
    </g>
</svg>