<?xml version="1.0" encoding="UTF-8"?>
<svg width="27px" height="20px" viewBox="0 0 27 20" version="1.1" xmlns="http://www.w3.org/2000/svg" xmlns:xlink="http://www.w3.org/1999/xlink">
    <!-- Generator: Sketch 50 (54983) - http://www.bohemiancoding.com/sketch -->
    <title>Page 1</title>
    <desc>Created with Sketch.</desc>
    <defs></defs>
    <g id="-----Symbols" stroke="none" stroke-width="1" fill="none" fill-rule="evenodd">
        <g id="Footer" transform="translate(-1167.000000, -348.000000)" fill="#FFFFFF">
            <g id="Page-1" transform="translate(1167.000000, 348.000000)">
                <path d="M10,6 L10,13.0853427 L16.5719106,9.56681898 L10,6 Z M13.0011725,2 C10.2841106,2 7.54887176,2.08871929 4.87201425,2.26254234 C3.46172806,2.35413551 2.40862483,3.45288264 2.25049369,4.99550432 C1.9165021,8.25104794 1.9165021,11.5674992 2.25049369,14.853821 C2.40862483,16.4091434 3.46038493,17.5075197 4.86816395,17.5875247 C7.97804647,17.7609769 10.9290815,17.8496962 13.6380846,17.8496962 C16.3421629,17.8496962 18.9037798,17.7613477 21.2515706,17.5878955 C22.6723332,17.4822111 23.7279436,16.3845764 23.8776578,14.856046 C24.2120971,11.454491 24.2120971,8.13813248 23.8780159,4.99735843 C23.713975,3.44991606 22.6601555,2.35089081 21.2568536,2.26254234 C18.496722,2.08797764 15.7188611,2 13.0011725,2 Z M4.05618616,19.7030211 C2.05300536,19.5851276 0.499022687,17.9245936 0.277385908,15.6642541 C-0.0924619693,11.8884241 -0.0924619693,8.07656814 0.277385908,4.33446676 C0.498245696,2.09261012 2.05028589,0.432076124 4.05162134,0.29705723 C9.90032651,-0.0990190768 15.9181244,-0.0990190768 21.9467031,0.29705723 C23.9718339,0.428839012 25.6281915,2.05021439 25.8626486,4.33206503 C26.2314281,7.94478636 26.2322051,11.7562246 25.8630371,15.6627921 C25.6498501,17.921252 23.994658,19.5447159 21.9523363,19.7021857 C19.3819518,19.8996495 16.5798297,20 13.622892,20 C10.6662457,20 7.44755911,19.8996495 4.05618616,19.7030211 Z" id="Fill-1"></path>
            </g>
        </g>
    </g>
</svg>