<?xml version="1.0" encoding="UTF-8"?>
<svg width="38px" height="38px" viewBox="0 0 38 38" version="1.1" xmlns="http://www.w3.org/2000/svg" xmlns:xlink="http://www.w3.org/1999/xlink">
    <!-- Generator: Sketch 50 (54983) - http://www.bohemiancoding.com/sketch -->
    <title>Group</title>
    <desc>Created with Sketch.</desc>
    <defs></defs>
    <g id="-----Flow-2---1440px" stroke="none" stroke-width="1" fill="none" fill-rule="evenodd" opacity="0.5">
        <g id="007-Doneer---Deel-mijn-verhaal" transform="translate(-674.000000, -1021.000000)" stroke="#838383">
            <g id="Group" transform="translate(674.000000, 1021.000000)">
                <path d="M10.6887439,15.0416667 C12.2169005,15.0416667 13.4583333,13.797746 13.4583333,12.2720773 C13.4583333,10.7414328 12.2169005,9.5 10.6887439,9.5 C9.16058736,9.5 7.91666667,10.7414328 7.91666667,12.2695894 C7.91666667,13.797746 9.16058736,15.0416667 10.6887439,15.0416667 Z M10.6887439,10.4932707 C11.6677095,10.4932707 12.4644407,11.2906238 12.4644407,12.2695894 C12.4644407,13.248555 11.6677095,14.0452862 10.6887439,14.0452862 C9.70977834,14.0452862 8.91242518,13.248555 8.91242518,12.2720773 C8.91242518,11.2931117 9.70977834,10.4932707 10.6887439,10.4932707 Z" id="Fill-2" stroke-width="0.5" fill="#838383"></path>
                <path d="M1.56928957,32.4583333 C1.75040156,32.4583333 1.93248208,32.3930143 2.07969611,32.2613866 L14.719764,20.8919177 L22.7022511,29.0449195 C23.0044273,29.3537003 23.492558,29.3537003 23.7957027,29.0449195 C24.0978788,28.735149 24.0978788,28.2363491 23.7957027,27.9275683 L20.0727373,24.1192713 L27.1854994,16.1592575 L35.9098678,24.3320529 C36.2275402,24.6299473 36.7156709,24.6061949 37.0062249,24.2855379 C37.2938734,23.9609221 37.2715976,23.4621223 36.9577992,23.164228 L27.658134,14.4550248 C27.5070459,14.3154796 27.3065636,14.2462018 27.1022073,14.2501605 C26.897851,14.2570883 26.7012428,14.3501184 26.5646824,14.5045089 L18.9754117,22.9979614 L15.2979665,19.2440968 C15.010318,18.9471922 14.5454316,18.935316 14.2393813,19.209458 L1.05404046,31.0707989 C0.732494023,31.3607758 0.702470108,31.8625447 0.986244523,32.1911191 C1.13733261,32.3692619 1.35331109,32.4583333 1.56928957,32.4583333 Z" id="Fill-3" stroke-width="0.5" fill="#838383"></path>
                <rect id="Twitter" stroke-width="1.99999988" x="0.99999994" y="0.99999994" width="36.0000001" height="36.0000001" rx="7.99999952"></rect>
            </g>
        </g>
    </g>
</svg>