<?xml version="1.0" encoding="UTF-8"?>
<svg width="13px" height="13px" viewBox="0 0 13 13" version="1.1" xmlns="http://www.w3.org/2000/svg" xmlns:xlink="http://www.w3.org/1999/xlink">
    <!-- Generator: Sketch 50 (54983) - http://www.bohemiancoding.com/sketch -->
    <title>Group 6</title>
    <desc>Created with Sketch.</desc>
    <defs></defs>
    <g id="-----Flow-3---1440px" stroke="none" stroke-width="1" fill="none" fill-rule="evenodd">
        <g id="010-Doneer---Aanmeldformulier-01a" transform="translate(-510.000000, -1066.000000)">
            <g id="Group-6" transform="translate(510.000000, 1066.000000)">
                <circle id="Oval-7" fill="#F88356" cx="6.5" cy="6.5" r="6.5"></circle>
                <path d="M4,5.25195117 C4.011,3.63495117 4.957,2.69995117 6.53,2.69995117 C8.004,2.69995117 8.917,3.39295117 8.917,4.62495117 C8.917,6.28595117 7.223,6.50595117 7.223,7.79295117 L5.76,7.79295117 C5.76,6.09895117 7.113,5.99995117 7.113,4.94395117 C7.113,4.48195117 6.827,4.27295117 6.343,4.27295117 C5.804,4.27295117 5.518,4.59195117 5.507,5.25195117 L4,5.25195117 Z M6.464,8.62895117 C7.014,8.62895117 7.41,9.01395117 7.41,9.57495117 C7.41,10.1359512 7.014,10.5319512 6.464,10.5319512 C5.914,10.5319512 5.529,10.1359512 5.529,9.57495117 C5.529,9.01395117 5.914,8.62895117 6.464,8.62895117 Z" id="?" fill="#FFFFFF"></path>
            </g>
        </g>
    </g>
</svg>