<?xml version="1.0" encoding="UTF-8"?>
<svg width="19px" height="18px" viewBox="0 0 19 18" version="1.1" xmlns="http://www.w3.org/2000/svg" xmlns:xlink="http://www.w3.org/1999/xlink">
    <!-- Generator: Sketch 50 (54983) - http://www.bohemiancoding.com/sketch -->
    <title>Group</title>
    <desc>Created with Sketch.</desc>
    <defs></defs>
    <g id="-----Flow-2---1440px" stroke="none" stroke-width="1" fill="none" fill-rule="evenodd">
        <g id="007-Doneer---Deel-mijn-verhaal" transform="translate(-166.000000, -112.000000)" fill="#FFFFFF" stroke="#FFFFFF" stroke-width="0.7">
            <g id="Group" transform="translate(167.000000, 113.000000)">
                <path d="M16.8191971,6.17639299 L8.76093604,0.0880123346 C8.6055123,-0.0293374449 8.39444015,-0.0293374449 8.23908282,0.0880123346 L0.18078858,6.17639299 C-0.0160394332,6.32512741 -0.0587718308,6.61033021 0.0853628528,6.81343955 C0.229464333,7.01654889 0.505913395,7.06061073 0.702675001,6.91194484 L8.49999283,1.02067755 L16.2973107,6.91194484 C16.3759356,6.97135638 16.4673438,7 16.5578886,7 C16.6938886,7 16.8280955,6.93541479 16.9146228,6.81343955 C17.0587907,6.61033021 17.0160251,6.32512741 16.8191971,6.17639299" id="Fill-1"></path>
                <path d="M14.1333507,5.47575092 L14.1333507,15.0484624 L10.6668187,15.0484624 L10.6668187,10.9147616 C10.6668187,9.60302234 9.69476169,8.53582824 8.5,8.53582824 C7.30527089,8.53582824 6.3332139,9.60305811 6.3332139,10.9147616 L6.3332139,15.0484624 L2.86668187,15.0484624 L2.86668187,5.47575092 C2.86668187,5.21296675 2.67264181,5 2.43335722,5 C2.19407263,5 2,5.21296675 2,5.47575092 L2,15.5242133 C2,15.7869975 2.19407263,16 2.43335722,16 L6.76653854,16 C6.994455,16 7.18090544,15.8067027 7.19820195,15.5612992 C7.1992443,15.5501413 7.19989576,15.5380177 7.19989576,15.5242133 L7.19989576,10.9147616 C7.19989576,10.1276966 7.78309087,9.48736584 8.5,9.48736584 C9.21690913,9.48736584 9.80013681,10.1277324 9.80013681,10.9147616 L9.80013681,15.5242133 C9.80013681,15.5379462 9.80078828,15.5498552 9.80183063,15.5608701 C9.81889912,15.8064524 10.0054473,16 10.2334615,16 L14.5666754,16 C14.8059925,16 15,15.7869975 15,15.5242133 L15,5.47575092 C15,5.21296675 14.8059925,4 14.5666754,5 C14.2777923,5.14197784 14.1333507,5.30056147 14.1333507,5.47575092 Z" id="Fill-3"></path>
            </g>
        </g>
    </g>
</svg>