<?xml version="1.0" encoding="UTF-8"?>
<svg width="65px" height="24px" viewBox="0 0 65 24" version="1.1" xmlns="http://www.w3.org/2000/svg" xmlns:xlink="http://www.w3.org/1999/xlink">
    <!-- Generator: Sketch 50 (54983) - http://www.bohemiancoding.com/sketch -->
    <title>Group</title>
    <desc>Created with Sketch.</desc>
    <defs></defs>
    <g id="-----Symbols" stroke="none" stroke-width="1" fill="none" fill-rule="evenodd">
        <g id="Footer" transform="translate(-1211.000000, -346.000000)" fill="#FFFFFF">
            <g id="Group-12">
                <g id="Group" transform="translate(1211.000000, 346.000000)">
                    <g id="Page-1" transform="translate(41.000000, 0.000000)">
                        <path d="M21.75,16.5 C21.75,19.395 19.395,21.75 16.5,21.75 L7.5,21.75 C4.605,21.75 2.25,19.395 2.25,16.5 L2.25,7.5 C2.25,4.605 4.605,2.25 7.5,2.25 L16.5,2.25 C19.395,2.25 21.75,4.605 21.75,7.5 L21.75,16.5 Z M16.5,0 L7.5,0 C3.3585,0 0,3.3585 0,7.5 L0,16.5 C0,20.6415 3.3585,24 7.5,24 L16.5,24 C20.6415,24 24,20.6415 24,16.5 L24,7.5 C24,3.3585 20.6415,0 16.5,0 Z" id="Fill-1"></path>
                        <path d="M12,15.75 C9.933,15.75 8.25,14.067 8.25,12 C8.25,9.9315 9.933,8.25 12,8.25 C14.067,8.25 15.75,9.9315 15.75,12 C15.75,14.067 14.067,15.75 12,15.75 M12,6 C8.6865,6 6,8.6865 6,12 C6,15.3134531 8.6865,18 12,18 C15.3135,18 18,15.3134531 18,12 C18,8.6865 15.3135,6 12,6" id="Fill-3"></path>
                        <path d="M18.749978,4.5 C19.1641896,4.5 19.5,4.83577627 19.5,5.25 C19.5,5.66422373 19.1641896,6 18.749978,6 C18.3358104,6 18,5.66422373 18,5.25 C18,4.83577627 18.3358104,4.5 18.749978,4.5" id="Fill-5"></path>
                    </g>
                    <path d="M2.25,3.15277778 C2.25,2.65498611 2.65498611,2.25 3.15277778,2.25 L20.8472222,2.25 C21.3450139,2.25 21.75,2.65498611 21.75,3.15277778 L21.75,20.8472222 C21.75,21.3450139 21.3450139,21.75 20.8472222,21.75 L15.7013889,21.75 L15.7013889,14.3923611 L18.4905208,14.3923611 L18.9513889,11.59375 L15.7013889,11.59375 L15.7013889,9.65277778 C15.7013889,8.88654514 16.2893229,8.29861111 17.0555556,8.29861111 L18.90625,8.29861111 L18.90625,5.5 L17.0555556,5.5 C14.7569479,5.5 12.9037708,7.36197917 12.9037708,9.66063194 L12.9037708,11.59375 L10.1944444,11.59375 L10.1944444,14.3923611 L12.9037708,14.3923611 L12.9037708,21.75 L3.15277778,21.75 C2.65498611,21.75 2.25,21.3450139 2.25,20.8472222 M21.1875,0 L2.8125,0 C1.2616875,0 0,1.2616875 0,2.8125 L0,21.1875 C0,22.7383125 1.2616875,24 2.8125,24 L21.1875,24 C22.7383125,24 24,22.7383125 24,21.1875 L24,2.8125 C24,1.2616875 22.7383125,0 21.1875,0" id="Page-1"></path>
                </g>
            </g>
        </g>
    </g>
</svg>