<?xml version="1.0" encoding="UTF-8"?>
<svg width="166px" height="152px" viewBox="0 0 166 152" version="1.1" xmlns="http://www.w3.org/2000/svg" xmlns:xlink="http://www.w3.org/1999/xlink">
    <!-- Generator: Sketch 50 (54983) - http://www.bohemiancoding.com/sketch -->
    <title>Group 9</title>
    <desc>Created with Sketch.</desc>
    <defs></defs>
    <g id="-----Flow-2---1440px" stroke="none" stroke-width="1" fill="none" fill-rule="evenodd">
        <g id="007-Doneer---Deel-mijn-verhaal" transform="translate(-642.000000, -317.000000)">
            <g id="Group-9" transform="translate(610.000000, 282.000000)">
                <path d="M48.1629956,49.1244819 L23.7480114,125.284651 C22.5681781,128.910063 22.0059557,132.573191 22,136.168548 C22.0273964,152.064494 32.7679884,166.51723 49.0384903,170.759056 L130.182549,191.865059 C146.463175,195.994917 163.607981,188.600891 171.529123,173.802233 L194.844676,129.849417 C197.636134,124.535643 198.982728,118.832927 199,113.202695 C198.96367,101.392409 193.292013,90.1396062 182.973684,83.2853855 L102.704524,30.1871261 C96.4599249,25.9788903 89.4875333,24.0159113 82.6372345,24 C67.4238775,24.0324118 52.9865541,33.4595436 48.1629956,49.1244819 Z" id="Fill-1" fill="#B1B1B1" transform="translate(110.500000, 108.500000) rotate(-18.000000) translate(-110.500000, -108.500000) "></path>
                <path d="M100.000763,81.8349013 C120.487131,81.8349013 137.165099,98.5128689 137.165099,119.000763 C137.165099,128.376931 133.649112,136.972616 127.910414,143.517131 C112.135938,138.925501 111.525471,133.35865 111.525471,133.284478 L111.525471,133.407487 L111.35515,133.407487 C111.64848,133.114157 111.940588,132.820828 112.233918,132.50369 C118.949059,124.958619 117.825799,112.04113 117.704316,110.771358 C117.044706,97.2919342 107.790021,92.5061755 100.0496,92.5061755 L99.2672866,92.5061755 C91.526866,92.5061755 82.2480678,97.2919342 81.6125713,110.771358 C81.4910883,112.016101 80.3916366,124.93359 87.0829691,132.50369 C87.4730577,132.943532 87.8890912,133.35865 88.3039037,133.749654 C87.7914164,135.165022 85.2027297,139.658672 72.0895861,143.492102 C66.3270797,136.947587 62.8349013,128.376931 62.8349013,119.000763 C62.8349013,98.5128689 79.5128689,81.8349013 100.000763,81.8349013 M86.4236643,111.235008 L86.4236643,111.088496 C87.0091025,98.3663567 96.3867965,97.364885 99.2672866,97.364885 L100.0496,97.364885 C102.906282,97.364885 112.307785,98.3663567 112.893223,111.088496 L112.893223,111.235008 C112.918252,111.356796 114.114157,123.127217 108.619951,129.304536 C106.446382,131.746405 103.540558,132.96734 99.7562709,132.992369 L99.6094535,132.992369 C95.8001374,132.943532 92.9181211,131.746405 90.7457731,129.304536 C85.2265379,123.176054 86.3986352,111.356796 86.4236643,111.235008 M100.000763,156.165404 C90.8675613,156.165404 82.4675308,152.844767 75.9968823,147.350561 C86.8876195,143.736594 90.9163987,139.340314 92.4056337,136.410986 C94.4815279,137.314783 96.801609,137.802241 99.3652666,137.82727 L99.9265913,137.82727 C102.710628,137.778433 105.225448,137.216803 107.399017,136.166494 C108.790272,139.097348 112.746405,143.638614 123.95428,147.350561 C117.508661,152.844767 109.132439,156.165404 100.000763,156.165404 M69.8183424,148.180186 C77.4623091,156.067424 88.1573916,161 100.000763,161 C123.149379,161 142,142.149684 142,119.000763 C142,95.8518418 123.149379,77 100.000763,77 C76.8518418,77 58,95.8518418 58,119.000763 C58,130.038012 62.2970796,140.097598 69.2817416,147.594748 C69.4282537,147.838019 69.6226876,148.009866 69.8183424,148.180186" id="Fill-1" fill="#FFFFFF"></path>
                <g id="Group-4" transform="translate(122.000000, 76.000000)">
                    <circle id="Oval" stroke="#FFFFFF" stroke-width="4" fill="#B1B1B1" cx="20.5" cy="20.5" r="20.5"></circle>
                    <polygon id="+" fill="#FFFFFF" points="19.2599805 29.84 19.2599805 22.04 11.9799805 22.04 11.9799805 19.56 19.2599805 19.56 19.2599805 11.76 21.8599805 11.76 21.8599805 19.56 29.1399805 19.56 29.1399805 22.04 21.8599805 22.04 21.8599805 29.84"></polygon>
                </g>
            </g>
        </g>
    </g>
</svg>