<?xml version="1.0" encoding="UTF-8"?>
<svg width="36px" height="36px" viewBox="0 0 36 36" version="1.1" xmlns="http://www.w3.org/2000/svg" xmlns:xlink="http://www.w3.org/1999/xlink">
    <!-- Generator: Sketch 50 (54983) - http://www.bohemiancoding.com/sketch -->
    <title>Group 5</title>
    <desc>Created with Sketch.</desc>
    <defs>
        <polygon id="path-1" points="0.0028125 0.030733945 23.9999297 0.030733945 23.9999297 15 0.0028125 15"></polygon>
    </defs>
    <g id="-----Flow-2---1440px" stroke="none" stroke-width="1" fill="none" fill-rule="evenodd">
        <g id="007-Doneer---Deel-mijn-verhaal" transform="translate(-1240.000000, -339.000000)">
            <g id="Group-5" transform="translate(1240.000000, 339.000000)">
                <rect id="Twitter" stroke="#FFFFFF" stroke-width="2.25" x="1.125" y="1.125" width="33.75" height="33.75" rx="7.5"></rect>
                <g id="Group" transform="translate(6.000000, 10.500000)">
                    <g id="Group-3">
                        <mask id="mask-2" fill="white">
                            <use xlink:href="#path-1"></use>
                        </mask>
                        <g id="Clip-2"></g>
                        <path d="M1.7990625,7.51486239 C3.03126563,8.97743119 7.1938125,13.451422 11.9998594,13.451422 C16.8162187,13.451422 20.9700469,8.97977064 22.2006563,7.51587156 C20.9679375,6.05252294 16.8056719,1.57926606 11.9998594,1.57926606 C7.1835,1.57926606 3.02967187,6.0509633 1.7990625,7.51486239 Z M11.9998594,15 C5.47528125,15 0.36646875,8.25917431 0.152296875,7.97220183 C-0.050765625,7.69990826 -0.050765625,7.33055046 0.152296875,7.05830275 C0.36646875,6.77155963 5.47528125,0.030733945 11.9998594,0.030733945 C18.5244375,0.030733945 23.6330156,6.77155963 23.8474219,7.05853211 C24.0507656,7.33055046 24.0507656,7.70013761 23.8474219,7.97243119 C23.6330156,8.25917431 18.5244375,15 11.9998594,15 Z" id="Fill-1" fill="#FFFFFF" mask="url(#mask-2)"></path>
                    </g>
                    <path d="M11.9998594,4.41825688 C10.2547031,4.41825688 8.83504688,5.80756881 8.83504688,7.51536697 C8.83504688,9.22316514 10.2547031,10.6124312 11.9998594,10.6124312 C13.7450156,10.6124312 15.1647188,9.22316514 15.1647188,7.51536697 C15.1647188,5.80756881 13.7450156,4.41825688 11.9998594,4.41825688 Z M11.9998594,12.1610092 C9.38226563,12.1610092 7.25259375,10.0769266 7.25259375,7.51536697 C7.25259375,4.95380734 9.38226563,2.86972477 11.9998594,2.86972477 C14.6174531,2.86972477 16.747125,4.95380734 16.747125,7.51536697 C16.747125,10.0769266 14.6174531,12.1610092 11.9998594,12.1610092 Z" id="Fill-4" fill="#FFFFFF"></path>
                </g>
            </g>
        </g>
    </g>
</svg>