<?xml version="1.0" encoding="UTF-8"?>
<svg width="28px" height="28px" viewBox="0 0 28 28" version="1.1" xmlns="http://www.w3.org/2000/svg" xmlns:xlink="http://www.w3.org/1999/xlink">
    <!-- Generator: Sketch 50 (54983) - http://www.bohemiancoding.com/sketch -->
    <title>Fill 1</title>
    <desc>Created with Sketch.</desc>
    <defs></defs>
    <g id="-----Web-1440" stroke="none" stroke-width="1" fill="none" fill-rule="evenodd">
        <g id="001-Doneer---Home" transform="translate(-1056.000000, -31.000000)" fill="#F88356">
            <path d="M1070.00025,32.6116338 C1076.82904,32.6116338 1082.38837,38.1709563 1082.38837,45.0002544 C1082.38837,48.1256436 1081.21637,50.9908721 1079.30347,53.1723771 C1074.04531,51.6418337 1073.84182,49.7862165 1073.84182,49.7614926 L1073.84182,49.8024956 L1073.78505,49.8024956 C1073.88283,49.7047191 1073.9802,49.6069426 1074.07797,49.50123 C1076.31635,46.9862063 1075.94193,42.6803767 1075.90144,42.2571194 C1075.68157,37.7639781 1072.59667,36.1687252 1070.01653,36.1687252 L1069.75576,36.1687252 C1067.17562,36.1687252 1064.08269,37.7639781 1063.87086,42.2571194 C1063.83036,42.6720337 1063.46388,46.9778633 1065.69432,49.50123 C1065.82435,49.6478439 1065.96303,49.7862165 1066.1013,49.9165513 C1065.93047,50.3883408 1065.06758,51.8862242 1060.69653,53.164034 C1058.77569,50.982529 1057.61163,48.1256436 1057.61163,45.0002544 C1057.61163,38.1709563 1063.17096,32.6116338 1070.00025,32.6116338 M1065.47455,42.4116694 L1065.47455,42.362832 C1065.6697,38.1221189 1068.7956,37.788295 1069.75576,37.788295 L1070.01653,37.788295 C1070.96876,37.788295 1074.10259,38.1221189 1074.29774,42.362832 L1074.29774,42.4116694 C1074.30608,42.4522655 1074.70472,46.375739 1072.87332,48.4348453 C1072.14879,49.2488018 1071.18019,49.65578 1069.91876,49.6641231 L1069.86982,49.6641231 C1068.60005,49.6478439 1067.63937,49.2488018 1066.91526,48.4348453 C1065.07551,46.3920181 1065.46621,42.4522655 1065.47455,42.4116694 M1070.00025,57.388468 C1066.95585,57.388468 1064.15584,56.281589 1061.99896,54.450187 C1065.62921,53.2455314 1066.97213,51.7801046 1067.46854,50.8036621 C1068.16051,51.1049277 1068.93387,51.2674138 1069.78842,51.2757568 L1069.97553,51.2757568 C1070.90354,51.2594777 1071.74182,51.0722677 1072.46634,50.7221647 C1072.93009,51.6991159 1074.2488,53.2128714 1077.98476,54.450187 C1075.83622,56.281589 1073.04415,57.388468 1070.00025,57.388468 M1059.93945,54.7267287 C1062.48744,57.355808 1066.05246,59 1070.00025,59 C1077.71646,59 1084,52.7165615 1084,45.0002544 C1084,37.2839473 1077.71646,31 1070.00025,31 C1062.28395,31 1056,37.2839473 1056,45.0002544 C1056,48.6793375 1057.43236,52.0325328 1059.76058,54.5315826 C1059.80942,54.612673 1059.87423,54.6699552 1059.93945,54.7267287" id="Fill-1"></path>
        </g>
    </g>
</svg>