<?xml version="1.0" encoding="UTF-8"?>
<svg width="28px" height="28px" viewBox="0 0 28 28" version="1.1" xmlns="http://www.w3.org/2000/svg" xmlns:xlink="http://www.w3.org/1999/xlink">
    <!-- Generator: Sketch 50 (54983) - http://www.bohemiancoding.com/sketch -->
    <title>Group 4</title>
    <desc>Created with Sketch.</desc>
    <defs></defs>
    <g id="-----Flow-2---1440px" stroke="none" stroke-width="1" fill="none" fill-rule="evenodd">
        <g id="007-Doneer---Deel-mijn-verhaal" transform="translate(-856.000000, -229.000000)" fill="#838383">
            <g id="Group-4" transform="translate(858.000000, 231.000000)">
                <g id="Group-10">
                    <path d="M12.3,25.8 C4.84415588,25.8 -1.2,19.7558441 -1.2,12.3 C-1.2,4.84415588 4.84415588,-1.2 12.3,-1.2 C19.7558441,-1.2 25.8,4.84415588 25.8,12.3 C25.8,19.7558441 19.7558441,25.8 12.3,25.8 Z M12.3,23.4 C18.4303607,23.4 23.4,18.4303607 23.4,12.3 C23.4,6.16963928 18.4303607,1.2 12.3,1.2 C6.16963928,1.2 1.2,6.16963928 1.2,12.3 C1.2,18.4303607 6.16963928,23.4 12.3,23.4 Z" id="Oval" fill-rule="nonzero"></path>
                    <polygon id="+" points="11.756 17.804 11.756 13.124 7.388 13.124 7.388 11.636 11.756 11.636 11.756 6.956 13.316 6.956 13.316 11.636 17.684 11.636 17.684 13.124 13.316 13.124 13.316 17.804"></polygon>
                </g>
            </g>
        </g>
    </g>
</svg>