<?xml version="1.0" encoding="UTF-8"?>
<svg width="24px" height="24px" viewBox="0 0 24 24" version="1.1" xmlns="http://www.w3.org/2000/svg" xmlns:xlink="http://www.w3.org/1999/xlink">
    <!-- Generator: Sketch 50 (54983) - http://www.bohemiancoding.com/sketch -->
    <title>Instagram</title>
    <desc>Created with Sketch.</desc>
    <defs></defs>
    <g id="-----Web-1440" stroke="none" stroke-width="1" fill="none" fill-rule="evenodd">
        <g id="004-Doneer---Doneerformulier-04" transform="translate(-1186.000000, -708.000000)">
            <g id="Social-Media" transform="translate(915.000000, 703.000000)">
                <g id="Instagram" transform="translate(271.000000, 5.000000)">
                    <rect id="Twitter" stroke="#F88356" stroke-width="2.3" x="1.15" y="1.15" width="21.7" height="21.7" rx="5"></rect>
                    <path d="M12,15.75 C9.933,15.75 8.25,14.067 8.25,12 C8.25,9.9315 9.933,8.25 12,8.25 C14.067,8.25 15.75,9.9315 15.75,12 C15.75,14.067 14.067,15.75 12,15.75 M12,6 C8.6865,6 6,8.6865 6,12 C6,15.3134531 8.6865,18 12,18 C15.3135,18 18,15.3134531 18,12 C18,8.6865 15.3135,6 12,6" id="Fill-3" fill="#F88356"></path>
                    <path d="M18.749978,4.5 C19.1641896,4.5 19.5,4.83577627 19.5,5.25 C19.5,5.66422373 19.1641896,6 18.749978,6 C18.3358104,6 18,5.66422373 18,5.25 C18,4.83577627 18.3358104,4.5 18.749978,4.5" id="Fill-5" fill="#F88356"></path>
                </g>
            </g>
        </g>
    </g>
</svg>