<?xml version="1.0" encoding="UTF-8"?>
<svg width="95px" height="85px" viewBox="0 0 95 85" version="1.1" xmlns="http://www.w3.org/2000/svg" xmlns:xlink="http://www.w3.org/1999/xlink">
    <!-- Generator: Sketch 50 (54983) - http://www.bohemiancoding.com/sketch -->
    <title>Group 14</title>
    <desc>Created with Sketch.</desc>
    <defs>
        <linearGradient x1="0%" y1="-55.7907897%" x2="84.6798099%" y2="187.49324%" id="linearGradient-1">
            <stop stop-color="#FDA23F" offset="0%"></stop>
            <stop stop-color="#F3646F" offset="100%"></stop>
        </linearGradient>
    </defs>
    <g id="-----Flow-1---1440px" stroke="none" stroke-width="1" fill="none" fill-rule="evenodd">
        <g id="001-Doneer---Home" transform="translate(-674.000000, -1180.000000)">
            <g id="Group-14" transform="translate(657.000000, 1152.000000)">
                <path d="M31.7466587,33.231236 L18.9184467,73.3392542 C18.2985343,75.2484948 18.0031293,77.1775975 18,79.0710105 C18.0143947,87.4422485 23.6577566,95.0534523 32.2066644,97.2873134 L74.8416781,108.402309 C83.3959057,110.577205 92.4041932,106.68331 96.5661492,98.8899335 L108.816694,75.7431843 C110.283393,72.9448061 110.990925,69.9416004 111,66.9765671 C110.980911,60.756949 108.000888,54.8309169 102.579393,51.2212977 L60.4040721,23.258309 C57.1230114,21.0421375 53.4595514,20.0083793 49.8602419,20 C41.8667831,20.017069 34.2810708,24.9816531 31.7466587,33.231236 Z" id="Fill-1" fill="url(#linearGradient-1)" transform="translate(64.500000, 64.500000) rotate(-43.000000) translate(-64.500000, -64.500000) "></path>
                <g id="Group" transform="translate(65.997261, 66.947736) rotate(-6.000000) translate(-65.997261, -66.947736) translate(36.997261, 56.947736)" fill="#FFFFFF">
                    <g id="Group-16">
                        <path d="M5,0 L53,0 C55.7614237,-5.07265313e-16 58,2.23857625 58,5 L58,15 C58,17.7614237 55.7614237,20 53,20 L5,20 C2.23857625,20 3.38176876e-16,17.7614237 0,15 L0,5 C-3.38176876e-16,2.23857625 2.23857625,5.07265313e-16 5,0 Z M10.656,5.92133333 L7.032,5.92133333 L7.032,14.3333333 L10.572,14.3333333 C11.4680045,14.3333333 12.2619965,14.1573351 12.954,13.8053333 C13.6460035,13.4533316 14.1819981,12.9573365 14.562,12.3173333 C14.9420019,11.6773301 15.132,10.9453375 15.132,10.1213333 C15.132,9.29732921 14.9440019,8.56733651 14.568,7.93133333 C14.1919981,7.29533015 13.6660034,6.80133509 12.99,6.44933333 C12.3139966,6.09733157 11.5360044,5.92133333 10.656,5.92133333 Z M19.236,7.76933333 C18.5319965,7.76933333 17.9120027,7.90733195 17.376,8.18333333 C16.8399973,8.45933471 16.4260015,8.84733083 16.134,9.34733333 C15.8419985,9.84733583 15.696,10.4253301 15.696,11.0813333 C15.696,11.7453367 15.8419985,12.3273308 16.134,12.8273333 C16.4260015,13.3273358 16.8399973,13.715332 17.376,13.9913333 C17.9120027,14.2673347 18.5319965,14.4053333 19.236,14.4053333 C19.9400035,14.4053333 20.5599973,14.2673347 21.096,13.9913333 C21.6320027,13.715332 22.0479985,13.3273358 22.344,12.8273333 C22.6400015,12.3273308 22.788,11.7453367 22.788,11.0813333 C22.788,10.4253301 22.6400015,9.84733583 22.344,9.34733333 C22.0479985,8.84733083 21.6320027,8.45933471 21.096,8.18333333 C20.5599973,7.90733195 19.9400035,7.76933333 19.236,7.76933333 Z M28.164,7.75733333 C27.6919976,7.75733333 27.2740018,7.85333237 26.91,8.04533333 C26.5459982,8.23733429 26.2480012,8.52133145 26.016,8.89733333 L26.016,7.84133333 L23.88,7.84133333 L23.88,14.3333333 L26.016,14.3333333 L26.016,10.9013333 C26.0560002,10.5333315 26.1899989,10.2373345 26.418,10.0133333 C26.6460011,9.78933221 26.9359982,9.67333337 27.288,9.66533333 C27.6240017,9.66533333 27.891999,9.77133227 28.092,9.98333333 C28.292001,10.1953344 28.392,10.4853315 28.392,10.8533333 L28.392,14.3333333 L30.516,14.3333333 L30.516,10.2413333 C30.516,9.48132953 30.3020021,8.87733557 29.874,8.42933333 C29.4459979,7.98133109 28.8760036,7.75733333 28.164,7.75733333 Z M34.824,7.76933333 C34.1519966,7.76933333 33.5600026,7.90733195 33.048,8.18333333 C32.5359974,8.45933471 32.1400014,8.85133079 31.86,9.35933333 C31.5799986,9.86733587 31.44,10.45333 31.44,11.1173333 C31.44,11.7733366 31.5779986,12.3493309 31.854,12.8453333 C32.1300014,13.3413358 32.5279974,13.725332 33.048,13.9973333 C33.5680026,14.2693347 34.1759965,14.4053333 34.872,14.4053333 C35.472003,14.4053333 36.0099976,14.3073343 36.486,14.1113333 C36.9620024,13.9153324 37.3679983,13.6293352 37.704,13.2533333 L36.588,12.1373333 C36.3719989,12.3533344 36.1340013,12.5173328 35.874,12.6293333 C35.6139987,12.7413339 35.3440014,12.7973333 35.064,12.7973333 C34.6959982,12.7973333 34.3840013,12.6993343 34.128,12.5033333 C33.8719987,12.3073324 33.6920005,12.0253352 33.588,11.6573333 L38.1,11.6573333 C38.108,11.5693329 38.112,11.4413342 38.112,11.2733333 C38.112,10.1853279 37.8280028,9.32933645 37.26,8.70533333 C36.6919972,8.08133021 35.8800053,7.76933333 34.824,7.76933333 Z M42.06,7.76933333 C41.3879966,7.76933333 40.7960026,7.90733195 40.284,8.18333333 C39.7719974,8.45933471 39.3760014,8.85133079 39.096,9.35933333 C38.8159986,9.86733587 38.676,10.45333 38.676,11.1173333 C38.676,11.7733366 38.8139986,12.3493309 39.09,12.8453333 C39.3660014,13.3413358 39.7639974,13.725332 40.284,13.9973333 C40.8040026,14.2693347 41.4119965,14.4053333 42.108,14.4053333 C42.708003,14.4053333 43.2459976,14.3073343 43.722,14.1113333 C44.1980024,13.9153324 44.6039983,13.6293352 44.94,13.2533333 L43.824,12.1373333 C43.6079989,12.3533344 43.3700013,12.5173328 43.11,12.6293333 C42.8499987,12.7413339 42.5800014,12.7973333 42.3,12.7973333 C41.9319982,12.7973333 41.6200013,12.6993343 41.364,12.5033333 C41.1079987,12.3073324 40.9280005,12.0253352 40.824,11.6573333 L45.336,11.6573333 C45.344,11.5693329 45.348,11.4413342 45.348,11.2733333 C45.348,10.1853279 45.0640028,9.32933645 44.496,8.70533333 C43.9279972,8.08133021 43.1160053,7.76933333 42.06,7.76933333 Z M48.576,8.92133333 L48.576,7.84133333 L46.44,7.84133333 L46.44,14.3333333 L48.576,14.3333333 L48.576,11.0213333 C48.6240002,10.6133313 48.8039984,10.2913345 49.116,10.0553333 C49.4280016,9.81933215 49.8359975,9.70133333 50.34,9.70133333 C50.4840007,9.70133333 50.5919996,9.70533329 50.664,9.71333333 L50.664,7.75733333 C50.2079977,7.75733333 49.8020018,7.85733233 49.446,8.05733333 C49.0899982,8.25733433 48.8000011,8.54533145 48.576,8.92133333 Z M10.716,12.5573333 L9.228,12.5573333 L9.228,7.70933333 L10.608,7.70933333 C11.0480022,7.70933333 11.4399983,7.81133231 11.784,8.01533333 C12.1280017,8.21933435 12.397999,8.50533149 12.594,8.87333333 C12.790001,9.24133517 12.888,9.66533093 12.888,10.1453333 C12.888,10.6173357 12.7960009,11.0373315 12.612,11.4053333 C12.4279991,11.7733352 12.1720016,12.0573323 11.844,12.2573333 C11.5159984,12.4573343 11.1400021,12.5573333 10.716,12.5573333 Z M19.236,9.49733333 C19.6520021,9.49733333 19.9899987,9.64533185 20.25,9.94133333 C20.5100013,10.2373348 20.64,10.6253309 20.64,11.1053333 C20.64,11.5933358 20.5120013,11.9853319 20.256,12.2813333 C19.9999987,12.5773348 19.6600021,12.7253333 19.236,12.7253333 C18.8199979,12.7253333 18.4840013,12.5773348 18.228,12.2813333 C17.9719987,11.9853319 17.844,11.5933358 17.844,11.1053333 C17.844,10.6253309 17.9719987,10.2373348 18.228,9.94133333 C18.4840013,9.64533185 18.8199979,9.49733333 19.236,9.49733333 Z M36.036,10.5173333 L33.54,10.5173333 C33.6120004,10.1333314 33.7619989,9.82933445 33.99,9.60533333 C34.2180011,9.38133221 34.4999983,9.26933333 34.836,9.26933333 C35.1960018,9.26933333 35.4859989,9.38333219 35.706,9.61133333 C35.9260011,9.83933447 36.036,10.1413315 36.036,10.5173333 Z M43.272,10.5173333 L40.776,10.5173333 C40.8480004,10.1333314 40.9979989,9.82933445 41.226,9.60533333 C41.4540011,9.38133221 41.7359983,9.26933333 42.072,9.26933333 C42.4320018,9.26933333 42.7219989,9.38333219 42.942,9.61133333 C43.1620011,9.83933447 43.272,10.1413315 43.272,10.5173333 Z" id="Combined-Shape"></path>
                    </g>
                </g>
            </g>
        </g>
    </g>
</svg>