<?xml version="1.0" encoding="UTF-8"?>
<svg width="24px" height="24px" viewBox="0 0 24 24" version="1.1" xmlns="http://www.w3.org/2000/svg" xmlns:xlink="http://www.w3.org/1999/xlink">
    <!-- Generator: Sketch 50 (54983) - http://www.bohemiancoding.com/sketch -->
    <title>Twitter</title>
    <desc>Created with Sketch.</desc>
    <defs></defs>
    <g id="-----Symbols" stroke="none" stroke-width="1" fill="none" fill-rule="evenodd">
        <g id="Footer" transform="translate(-1167.000000, -346.000000)">
            <g id="Twitter" transform="translate(1167.000000, 346.000000)">
                <path d="M18,9.24466839 C17.5969846,9.42340442 17.1604562,9.54714475 16.7041637,9.60128115 C17.1707679,9.32200609 17.5265214,8.87946254 17.6975236,8.35184751 C17.2609952,8.61049918 16.7780642,8.7986876 16.2607609,8.89922662 C15.8517303,8.46269823 15.2639638,8.18771971 14.6160456,8.18771971 C13.3709085,8.18771971 12.3603625,9.19826576 12.3603625,10.4434029 C12.3603625,10.6212796 12.3809859,10.7922819 12.4179361,10.957269 C10.5412077,10.8627451 8.88016561,9.96648699 7.76564331,8.60018749 C7.57058042,8.93273963 7.45972971,9.32200609 7.45972971,9.73533318 C7.45972971,10.5173033 7.85930787,11.2090462 8.4634013,11.6112022 C8.09389891,11.6017499 7.74845715,11.4977736 7.44340286,11.3293493 L7.44340286,11.3568471 C7.44340286,12.450746 8.22193579,13.363331 9.25224592,13.5721428 C9.0640575,13.6219827 8.86297945,13.6486212 8.65846418,13.6486212 C8.51410046,13.6486212 8.37317397,13.6357316 8.23224748,13.609093 C8.52097492,14.5053511 9.35278494,15.1558472 10.3401297,15.1764706 C9.56761191,15.780564 8.59401609,16.1397547 7.53706742,16.1397547 C7.35575346,16.1397547 7.17787673,16.129443 7,16.1096789 C8.00023436,16.7507226 9.1852199,17.1228029 10.4604328,17.1228029 C14.6091712,17.1228029 16.8786032,13.6855714 16.8786032,10.7054918 L16.8717288,10.4133271 C17.3151316,10.0945239 17.6975236,9.69838294 18,9.24466839 Z" id="twitter-logo-silhouette" fill="#FFFFFF"></path>
                <rect stroke="#FFFFFF" stroke-width="2.3" x="1.15" y="1.15" width="21.7" height="21.7" rx="5"></rect>
            </g>
        </g>
    </g>
</svg>