<?xml version="1.0" encoding="UTF-8"?>
<svg width="24px" height="24px" viewBox="0 0 24 24" version="1.1" xmlns="http://www.w3.org/2000/svg" xmlns:xlink="http://www.w3.org/1999/xlink">
    <!-- Generator: Sketch 50 (54983) - http://www.bohemiancoding.com/sketch -->
    <title>Facebook</title>
    <desc>Created with Sketch.</desc>
    <defs></defs>
    <g id="-----Symbols" stroke="none" stroke-width="1" fill="none" fill-rule="evenodd">
        <g id="Footer" transform="translate(-1126.000000, -346.000000)" fill="#FFFFFF">
            <path d="M1128.25,349.152778 C1128.25,348.654986 1128.65499,348.25 1129.15278,348.25 L1146.84722,348.25 C1147.34501,348.25 1147.75,348.654986 1147.75,349.152778 L1147.75,366.847222 C1147.75,367.345014 1147.34501,367.75 1146.84722,367.75 L1141.70139,367.75 L1141.70139,360.392361 L1144.49052,360.392361 L1144.95139,357.59375 L1141.70139,357.59375 L1141.70139,355.652778 C1141.70139,354.886545 1142.28932,354.298611 1143.05556,354.298611 L1144.90625,354.298611 L1144.90625,351.5 L1143.05556,351.5 C1140.75695,351.5 1138.90377,353.361979 1138.90377,355.660632 L1138.90377,357.59375 L1136.19444,357.59375 L1136.19444,360.392361 L1138.90377,360.392361 L1138.90377,367.75 L1129.15278,367.75 C1128.65499,367.75 1128.25,367.345014 1128.25,366.847222 M1128.8125,346 C1127.26169,346 1126,347.261687 1126,348.8125 L1126,367.1875 C1126,368.738313 1127.26169,370 1128.8125,370 L1147.1875,370 C1148.73831,370 1150,368.738313 1150,367.1875 L1150,348.8125 C1150,347.261687 1148.73831,346 1147.1875,346 L1128.8125,346 Z" id="Facebook"></path>
        </g>
    </g>
</svg>