<?xml version="1.0" encoding="UTF-8"?>
<svg width="149px" height="147px" viewBox="0 0 149 147" version="1.1" xmlns="http://www.w3.org/2000/svg" xmlns:xlink="http://www.w3.org/1999/xlink">
    <!-- Generator: Sketch 50 (54983) - http://www.bohemiancoding.com/sketch -->
    <title>Group 7</title>
    <desc>Created with Sketch.</desc>
    <defs>
        <linearGradient x1="0%" y1="0%" x2="110.35421%" y2="122.826364%" id="linearGradient-1">
            <stop stop-color="#FDA23F" offset="0%"></stop>
            <stop stop-color="#F3646F" offset="100%"></stop>
        </linearGradient>
        <polygon id="path-2" points="0.0125294118 0.151705686 70.7997668 0.151705686 70.7997668 62.7895084 0.0125294118 62.7895084"></polygon>
    </defs>
    <g id="-----Flow-3---1440px" stroke="none" stroke-width="1" fill="none" fill-rule="evenodd">
        <g id="009-Doneer---Profiel-goed-doel-01" transform="translate(-165.000000, -276.000000)">
            <g id="Group-7" transform="translate(165.000000, 276.000000)">
                <path d="M149,142 L149,25.1200906 C131.695015,15.8562068 112.113367,8.15224813 90.2550579,2.00821474 C43.2623255,-11.2007169 14.3555422,43.3149945 1.8075328,90.4316097 C-5.16322163,116.606148 8.02807191,135.462278 41.3814134,147 L144,147 C146.761424,147 149,144.761424 149,142 Z" id="Oval-5" fill="url(#linearGradient-1)" transform="translate(74.500000, 73.500000) rotate(-180.000000) translate(-74.500000, -73.500000) "></path>
                <g id="Group" transform="translate(33.000000, 32.000000)">
                    <mask id="mask-3" fill="white">
                        <use xlink:href="#path-2"></use>
                    </mask>
                    <g id="Clip-2"></g>
                    <path d="M70.6573206,57.9342943 L67.8513588,48.0907023 C67.7845353,47.8882174 67.6506794,47.6865753 67.5168235,47.5515151 C65.7794118,42.2247492 61.5027059,38.1118395 56.0904176,36.6961304 L55.2885353,36.5612809 C54.0852941,36.2237358 52.7492412,36.6287057 51.8803265,37.6402876 C48.9396735,41.0115251 45.1979735,41.280592 41.2555941,41.280592 C37.3125882,41.280592 33.5708882,41.0115251 30.6302353,37.6402876 C29.7615294,36.6287057 28.4252676,36.2237358 27.2220265,36.5612809 L26.4203529,36.7637659 C22.3441176,37.8419298 18.8690853,40.471495 16.6643265,43.9777926 L8.24435294,43.9777926 C8.17752941,43.9777926 8.17752941,43.9777926 8.11070588,43.9103679 C8.11070588,43.8427324 8.04388235,43.7753077 8.04388235,43.6402475 L9.78129412,37.3703779 C11.3180265,32.4483712 14.2586794,30.9643946 20.0055029,29.4812609 C20.2730059,29.4138361 20.4736853,29.2787759 20.6067059,29.1447692 C21.0748882,29.5488963 21.6090588,29.8862308 22.1442735,30.1552977 C22.3441176,30.2903579 22.5447971,30.2903579 22.7454765,30.2903579 C23.2128235,30.2903579 23.6810059,30.021291 23.9478824,29.5488963 C24.2822088,28.8746488 24.0147059,28.0655518 23.3466794,27.7282174 C20.2730059,26.1100234 18.0674118,21.5255619 18.0674118,16.805408 C18.0674118,12.6250736 21.4754118,9.18641137 25.6184706,9.18641137 C26.4203529,9.18641137 27.1560382,9.32147157 27.8908882,9.52374582 C27.1560382,11.3444247 26.7546794,13.2991104 26.7546794,15.389699 C26.7546794,26.9191204 33.6377118,36.6287057 41.7899735,36.6287057 C49.8085882,36.6287057 56.8920912,26.7166355 56.8920912,15.389699 C56.8920912,6.96160535 50.1429147,0.151705686 41.7899735,0.151705686 C36.5107059,0.151705686 31.8332676,2.9163311 29.1603265,7.09666555 C28.0239088,6.69169565 26.8215029,6.4892107 25.6184706,6.4892107 C22.0104176,6.4892107 18.8030971,8.44473913 16.9986529,11.3444247 C16.8650059,11.2093645 16.73115,11.1419398 16.5972941,11.0745151 C15.5949412,10.5353278 14.5932147,10.3328428 13.4567971,10.3328428 C9.71447059,10.2654181 6.70762059,13.2991104 6.70762059,17.0753177 C6.70762059,19.232699 7.30882353,21.2556522 8.24435294,22.8738462 C5.17088824,23.6829431 2.43091471,24.8967993 1.16147647,29.009709 L0.0920911765,32.9201338 C-0.108588235,33.5941706 0.0252676471,34.3356321 0.426626471,34.8756622 C0.82715,35.4822742 1.562,35.8196087 2.29705882,35.8196087 L7.44267941,35.8196087 C7.37564706,36.0888863 7.242,36.358796 7.17496765,36.6287057 L5.43839118,42.9662107 C5.17088824,43.8427324 5.37156765,44.7868896 5.97277059,45.5283512 C6.50694118,46.2700234 7.30882353,46.6749933 8.24435294,46.6749933 L15.3280647,46.6749933 C15.1273853,47.1465452 14.9937382,47.6189398 14.8598824,48.0907023 L12.0539206,58.0019298 C11.7862088,59.1483612 11.9868882,60.3624281 12.7219471,61.3055318 C13.4567971,62.249689 14.5261824,62.7895084 15.6617647,62.7895084 L67.0494765,62.7895084 C68.1850588,62.7895084 69.3212676,62.249689 69.9892941,61.3055318 C70.7243529,60.3624281 70.9918559,59.1483612 70.6573206,57.9342943 Z M30.7638824,9.72623077 C30.8309147,9.65880602 30.8977382,9.59138127 30.9645618,9.45632107 C31.0315941,9.38889632 31.0315941,9.25383612 31.0984176,9.18641137 C33.1695294,5.41104682 37.1795676,2.84890635 41.7899735,2.84890635 C47.3361176,2.84890635 52.0141824,6.55663545 53.6179471,11.6134916 C51.2791235,12.086097 48.8068618,11.1419398 47.3361176,9.11898662 C46.8685618,8.51237458 46.0668882,8.37731438 45.4656853,8.84970903 C45.1979735,9.05135117 45.0643265,9.25383612 44.9972941,9.52374582 C44.9304706,9.59138127 44.9304706,9.65880602 44.8636471,9.72623077 C42.9932147,13.5692308 36.7113853,15.187214 29.5614765,13.7717157 C29.7615294,12.3560067 30.1626794,11.0070903 30.7638824,9.72623077 Z M34.5064176,16.9404682 C39.8518824,16.9404682 44.2624441,15.2548495 46.5342353,12.086097 C48.2048235,13.5692308 50.2767706,14.3783278 52.4815294,14.3783278 C53.0167441,14.3783278 53.6179471,14.3106923 54.1521176,14.1758428 C54.21915,14.580602 54.21915,14.9173043 54.21915,15.3222742 C54.21915,25.2335017 48.4055029,33.931505 41.7899735,33.931505 C35.4421559,33.931505 29.8951765,25.9075385 29.4278294,16.4687057 C31.1652412,16.805408 32.9026529,16.9404682 34.5064176,16.9404682 Z M2.83206471,33.122408 L3.76780294,29.7511706 C4.56968529,26.9865452 6.24027353,26.1776589 9.58145,25.3685619 C9.78129412,25.3009264 9.98197353,25.2335017 10.1156206,25.0984415 C10.4501559,25.3685619 10.7168235,25.5710468 11.1181824,25.7735318 C11.3180265,25.9075385 11.5187059,25.9075385 11.7193853,25.9075385 C12.1867324,25.9075385 12.6551235,25.6384716 12.9226265,25.1660769 C13.2561176,24.4920401 12.9886147,23.6829431 12.3874118,23.345398 C10.65,22.4022943 9.38077059,19.7725184 9.38077059,17.0753177 C9.38077059,14.783087 11.1850059,12.9626187 13.4567971,12.9626187 C14.1918559,12.9626187 14.7930588,13.0974682 15.3950971,13.4341706 C15.5949412,13.5015953 15.7285882,13.5692308 15.9292676,13.5692308 C15.5949412,14.580602 15.3950971,15.6598194 15.3950971,16.805408 C15.3950971,20.6490401 16.6643265,24.4244047 18.6692412,27.0541806 C14.6592029,28.0655518 11.1181824,29.4138361 8.77956765,33.122408 L2.83206471,33.122408 Z M67.9181824,59.6875485 C67.7845353,59.822398 67.5168235,60.0923077 67.0494765,60.0923077 L15.6617647,60.0923077 C15.1944176,60.0923077 14.9267059,59.822398 14.7930588,59.6875485 C14.5932147,59.4182709 14.5261824,59.013301 14.5932147,58.7433913 L17.3991765,48.8995886 C18.7362735,44.2477023 22.4109412,40.6065552 27.0892147,39.3924883 L27.8908882,39.1908462 C28.0909412,39.1234214 28.4252676,39.2584816 28.6259471,39.4601237 C32.3008235,43.7078829 36.8450324,44.0452174 41.2555941,44.0452174 C45.6655294,44.0452174 50.2097382,43.7078829 53.88545,39.4601237 C54.0852941,39.2584816 54.3527971,39.1234214 54.6873324,39.1908462 L55.4892147,39.3924883 C60.0996206,40.6065552 63.8421559,44.2477023 65.1782088,48.8995886 L66.38145,53.0799231 C66.4474382,53.282408 66.5144706,53.4174682 66.6481176,53.5523177 L68.1180265,58.6768094 C68.1850588,59.013301 68.1180265,59.4182709 67.9181824,59.6875485 Z" id="Fill-1" stroke="#FFFFFF" stroke-width="0.7" fill="#FFFFFF" mask="url(#mask-3)"></path>
                </g>
            </g>
        </g>
    </g>
</svg>