<?xml version="1.0" encoding="UTF-8"?>
<svg width="35px" height="35px" viewBox="0 0 35 35" version="1.1" xmlns="http://www.w3.org/2000/svg" xmlns:xlink="http://www.w3.org/1999/xlink">
    <!-- Generator: Sketch 50 (54983) - http://www.bohemiancoding.com/sketch -->
    <title>Group</title>
    <desc>Created with Sketch.</desc>
    <defs>
        <polygon id="path-1" points="0.00886075949 0.0505882353 34.9491983 0.0505882353 34.9491983 34.8529412 0.00886075949 34.8529412"></polygon>
    </defs>
    <g id="-----Flow-3---1440px" stroke="none" stroke-width="1" fill="none" fill-rule="evenodd">
        <g id="009-Doneer---Profiel-goed-doel-01" transform="translate(-33.000000, -570.000000)">
            <g id="Group" transform="translate(33.000000, 570.000000)">
                <path d="M17.2452532,8.56073526 C16.0113924,8.15102938 14.5727004,8.56073526 13.5447046,9.37985291 C12.5167089,10.1983823 11.9,11.4266176 11.9,12.8598529 C11.9,13.4739706 12.3112869,13.8835294 12.9279958,13.8835294 C13.5447046,13.8835294 13.9559916,13.4739706 13.9559916,12.8598529 C13.9559916,12.2457353 14.1614135,11.4266176 14.7779747,11.017647 C15.3946835,10.6079411 16.0113924,10.4029411 16.8339662,10.6079411 C17.861962,10.8125 18.4786709,11.6316176 18.6840928,12.4502941 C18.8899578,13.4739706 18.6840928,14.2930882 17.861962,14.9072058 C16.2174051,16.1352941 15.3946835,17.9782353 15.3946835,19.8204411 C15.3946835,20.4345588 15.8059705,20.8441176 16.4226793,20.8441176 C17.0393882,20.8441176 17.4506751,20.4345588 17.2452532,19.8204411 C17.2452532,18.5922058 18.067384,17.3635294 19.0953797,16.545 C20.5346624,15.3167647 21.1513713,13.6789706 20.7399367,12.0407353 C20.3286498,10.1983823 18.8899578,8.97029409 17.2452532,8.56073526 Z" id="Fill-1" fill="#FFFFFF"></path>
                <g id="Group-5">
                    <mask id="mask-2" fill="white">
                        <use xlink:href="#path-1"></use>
                    </mask>
                    <g id="Clip-3"></g>
                    <path d="M15.6060127,24.8071691 C15.4,25.0117279 15.4,25.4212868 15.4,25.6258456 C15.4,25.8302574 15.4,26.0354044 15.6060127,26.2398162 C15.8112869,26.444375 16.2227215,26.6495221 16.4279958,26.6495221 C16.6334177,26.6495221 17.0447046,26.444375 17.0447046,26.2398162 C17.2501266,26.2398162 17.4559916,25.8302574 17.4559916,25.6258456 C17.4559916,25.2162868 17.2501266,25.0117279 17.0447046,24.8071691 C16.6334177,24.3976103 16.0167089,24.3976103 15.6060127,24.8071691 Z" id="Fill-2" fill="#FFFFFF" mask="url(#mask-2)"></path>
                    <path d="M16.7745992,0 C7.11194093,0 -0.7,7.77911765 -0.7,17.4011765 C-0.7,27.0232353 7.11194093,34.8023529 16.7745992,34.8023529 C26.4372574,34.8023529 34.2491983,27.0232353 34.2491983,17.4011765 C34.2491983,7.77911765 26.4372574,0 16.7745992,0 Z M16.7745992,32.755 C8.34594937,32.755 1.35599156,25.7944118 1.35599156,17.4011765 C1.35599156,9.00794118 8.34594937,2.04735294 16.7745992,2.04735294 C25.2032489,2.04735294 32.1932068,9.00794118 32.1932068,17.4011765 C32.1932068,25.7944118 25.2032489,32.755 16.7745992,32.755 Z" id="Fill-4" fill="#FFFFFF" mask="url(#mask-2)"></path>
                </g>
            </g>
        </g>
    </g>
</svg>