<?xml version="1.0" encoding="UTF-8"?>
<svg width="37px" height="37px" viewBox="0 0 37 37" version="1.1" xmlns="http://www.w3.org/2000/svg" xmlns:xlink="http://www.w3.org/1999/xlink">
    <!-- Generator: Sketch 50 (54983) - http://www.bohemiancoding.com/sketch -->
    <title>Group 2</title>
    <desc>Created with Sketch.</desc>
    <defs>
        <polygon id="path-1" points="0.00372670807 0.0314906832 19.9685093 0.0314906832 19.9685093 12.9375155 0.00372670807 12.9375155"></polygon>
    </defs>
    <g id="-----Flow-3---1440px" stroke="none" stroke-width="1" fill="none" fill-rule="evenodd">
        <g id="009-Doneer---Profiel-goed-doel-01" transform="translate(-32.000000, -171.000000)">
            <g id="Group-2" transform="translate(33.000000, 172.000000)">
                <g id="Group" transform="translate(8.000000, 11.000000)">
                    <g id="Group-4">
                        <mask id="mask-2" fill="white">
                            <use xlink:href="#path-1"></use>
                        </mask>
                        <g id="Clip-2"></g>
                        <path d="M18.2923602,0.892795031 C17.8418012,0.892795031 17.4774534,1.25714286 17.4774534,1.70770186 C17.4774534,2.15819876 17.8418012,2.5226087 18.2923602,2.5226087 C18.7428571,2.5226087 19.1072671,2.15819876 19.1072671,1.70770186 C19.1072671,1.25714286 18.7428571,0.892795031 18.2923602,0.892795031 Z M18.2923602,3.38385093 C17.3647826,3.38385093 16.6161491,2.63521739 16.6161491,1.70770186 C16.6161491,0.780124224 17.3647826,0.0314906832 18.2923602,0.0314906832 C19.2198758,0.0314906832 19.9685093,0.780124224 19.9685093,1.70770186 C19.9685093,2.63521739 19.2198758,3.38385093 18.2923602,3.38385093 Z" id="Fill-1" stroke="#FFFFFF" stroke-width="0.2" fill="#FFFFFF" mask="url(#mask-2)"></path>
                        <path d="M1.67621118,10.4463975 C1.22565217,10.4463975 0.861304348,10.8108075 0.861304348,11.2613043 C0.861304348,11.7118012 1.22565217,12.0762112 1.67621118,12.0762112 C2.12670807,12.0762112 2.49111801,11.7118012 2.49111801,11.2613043 C2.49111801,10.8108075 2.12670807,10.4463975 1.67621118,10.4463975 Z M1.67621118,12.9375155 C0.74863354,12.9375155 0,12.1888199 0,11.2613043 C0,10.3337888 0.74863354,9.58509317 1.67621118,9.58509317 C2.60372671,9.58509317 3.35236025,10.3337888 3.35236025,11.2613043 C3.35236025,12.1888199 2.60372671,12.9375155 1.67621118,12.9375155 Z" id="Fill-3" stroke="#FFFFFF" stroke-width="0.2" fill="#FFFFFF" mask="url(#mask-2)"></path>
                    </g>
                    <path d="M6.65838509,5.4642236 C6.2078882,5.4642236 5.84347826,5.82857143 5.84347826,6.27913043 C5.84347826,6.72962733 6.2078882,7.09403727 6.65838509,7.09403727 C7.10888199,7.09403727 7.47329193,6.72962733 7.47329193,6.27913043 C7.47329193,5.82857143 7.10888199,5.4642236 6.65838509,5.4642236 Z M6.65838509,7.9552795 C5.73086957,7.9552795 4.98217391,7.20664596 4.98217391,6.27913043 C4.98217391,5.3515528 5.73086957,4.60291925 6.65838509,4.60291925 C7.58590062,4.60291925 8.33459627,5.3515528 8.33459627,6.27913043 C8.33459627,7.20664596 7.58590062,7.9552795 6.65838509,7.9552795 Z" id="Fill-5" stroke="#FFFFFF" stroke-width="0.2" fill="#FFFFFF"></path>
                    <path d="M10.1896273,8.99546584 C9.73913043,8.99546584 9.3747205,9.35987578 9.3747205,9.81037267 C9.3747205,10.2608696 9.73913043,10.6252795 10.1896273,10.6252795 C10.6401863,10.6252795 11.0045342,10.2608696 11.0045342,9.81037267 C11.0045342,9.35987578 10.6401863,8.99546584 10.1896273,8.99546584 Z M10.1896273,11.4865839 C9.2621118,11.4865839 8.51347826,10.7378882 8.51347826,9.81037267 C8.51347826,8.88285714 9.2621118,8.13416149 10.1896273,8.13416149 C11.117205,8.13416149 11.8658385,8.88285714 11.8658385,9.81037267 C11.8658385,10.7378882 11.117205,11.4865839 10.1896273,11.4865839 Z" id="Fill-6" stroke="#FFFFFF" stroke-width="0.2" fill="#FFFFFF"></path>
                    <polyline id="Fill-7" stroke="#FFFFFF" stroke-width="0.2" fill="#FFFFFF" points="17.1006832 2.27658385 17.7103106 2.88503106 11.3781366 9.22968944 10.7685714 8.62130435 17.1006832 2.27658385"></polyline>
                    <polyline id="Fill-8" stroke="#FFFFFF" stroke-width="0.2" fill="#FFFFFF" points="7.84596273 6.85354037 9.62006211 8.62111801 9.01217391 9.23124224 7.23807453 7.4636646 7.84596273 6.85354037"></polyline>
                    <polyline id="Fill-9" stroke="#FFFFFF" stroke-width="0.2" fill="#FFFFFF" points="5.47478261 6.85378882 6.08378882 7.46279503 2.86540373 10.6811801 2.25639752 10.0721739 5.47478261 6.85378882"></polyline>
                </g>
                <circle id="Oval-2" stroke="#FFFFFF" stroke-width="1.7578125" cx="17.5" cy="17.5" r="17.5"></circle>
            </g>
        </g>
    </g>
</svg>