<?xml version="1.0" encoding="UTF-8"?>
<svg width="149px" height="147px" viewBox="0 0 149 147" version="1.1" xmlns="http://www.w3.org/2000/svg" xmlns:xlink="http://www.w3.org/1999/xlink">
    <!-- Generator: Sketch 50 (54983) - http://www.bohemiancoding.com/sketch -->
    <title>Group 8</title>
    <desc>Created with Sketch.</desc>
    <defs>
        <linearGradient x1="0%" y1="0%" x2="110.35421%" y2="122.826364%" id="linearGradient-1">
            <stop stop-color="#FDA23F" offset="0%"></stop>
            <stop stop-color="#F3646F" offset="100%"></stop>
        </linearGradient>
        <polygon id="path-2" points="0.0071484375 0.118789474 60.9865371 0.118789474 60.9865371 61 0.0071484375 61"></polygon>
    </defs>
    <g id="-----Flow-3---1440px" stroke="none" stroke-width="1" fill="none" fill-rule="evenodd">
        <g id="009-Doneer---Profiel-goed-doel-01" transform="translate(-545.000000, -276.000000)">
            <g id="Group-8" transform="translate(545.000000, 276.000000)">
                <path d="M149,142 L149,25.1200906 C131.695015,15.8562068 112.113367,8.15224813 90.2550579,2.00821474 C43.2623255,-11.2007169 14.3555422,43.3149945 1.8075328,90.4316097 C-5.16322163,116.606148 8.02807191,135.462278 41.3814134,147 L144,147 C146.761424,147 149,144.761424 149,142 Z" id="Oval-5" fill="url(#linearGradient-1)" transform="translate(74.500000, 73.500000) rotate(-180.000000) translate(-74.500000, -73.500000) "></path>
                <g id="Group" transform="translate(40.000000, 37.000000)">
                    <mask id="mask-3" fill="white">
                        <use xlink:href="#path-2"></use>
                    </mask>
                    <g id="Clip-2"></g>
                    <path d="M22.4439492,3.68520858 C24.5997988,3.68520858 26.4332539,4.69807018 27.8933223,6.69573099 C29.0916387,8.33500195 29.5835703,10.0343216 29.5869062,10.0457368 C29.8012402,10.8182846 30.5057187,11.3531345 31.3087266,11.3531345 C32.1118535,11.3531345 32.816332,10.8182846 33.030666,10.0457368 C33.0482988,9.98223977 34.8570918,3.68520858 40.1737422,3.68520858 C44.208916,3.68520858 47.2518867,7.0475809 47.2518867,11.5062885 C47.2518867,14.7370292 45.569502,17.5798908 41.2514883,21.6460819 C39.4183906,23.3721559 37.2578945,25.1921676 34.7562988,27.299462 C33.6434063,28.2368168 32.5020391,29.1984288 31.3088457,30.2194951 C30.1155332,29.1984288 28.9738086,28.2365789 27.860916,27.2989864 C20.0691191,20.7353626 15.366043,16.7735731 15.366043,11.5062885 C15.3658047,7.0475809 18.4087754,3.68520858 22.4439492,3.68520858 Z M25.5559023,30.0244854 C27.0185918,31.2567329 28.5313203,32.5308363 30.1386465,33.921232 C30.4743848,34.2116062 30.8914961,34.3569123 31.3087266,34.3569123 C31.725957,34.3569123 32.1431875,34.2116062 32.4789258,33.921232 C34.0860137,32.5310741 35.5983848,31.2570897 37.0611934,30.0250799 C39.6032969,27.88354 41.7987012,26.0341579 43.7037598,24.240306 C47.4025996,20.7572417 50.8252715,16.8038947 50.8252715,11.5064074 C50.8252715,8.49517154 49.789582,5.67525926 47.9089473,3.56582456 C45.9271621,1.34295127 43.1801367,0.118789474 40.1737422,0.118789474 C36.8180273,0.118789474 33.909209,1.70241131 31.7616992,4.69830799 C31.6006211,4.92292593 31.4499082,5.14766277 31.3087266,5.36990253 C31.1677832,5.14754386 31.0170703,4.92292593 30.8559922,4.69830799 C28.7084824,1.70241131 25.7996641,0.118789474 22.4439492,0.118789474 C19.4375547,0.118789474 16.6904102,1.34295127 14.7087441,3.56570565 C12.8282285,5.67514035 11.7925391,8.49505263 11.7925391,11.5062885 C11.7925391,14.7785283 13.0648418,17.7979688 15.7960215,21.0089708 C18.1791914,23.8104522 21.5976934,26.6900565 25.5559023,30.0244854 Z" id="Fill-1" fill="#FFFFFF" mask="url(#mask-3)"></path>
                    <path d="M48.4795117,53.8670429 C46.801416,56.1002612 44.1295684,57.4335809 41.3327422,57.4335809 L25.3790977,57.4335809 C21.9465371,57.4335809 18.530418,56.9635361 15.2260527,56.0364074 L14.527293,55.8404464 C14.5295566,55.7771871 14.5321777,55.7140468 14.5321777,55.6503119 L14.5321777,42.1904776 L15.7771973,41.0968772 C19.1417285,38.1420039 24.216166,38.141885 27.5808164,41.0968772 C29.1012891,42.4322183 31.0536465,43.1674288 33.0787988,43.1674288 L41.3328613,43.1674288 C42.3180352,43.1674288 43.1194941,43.9674444 43.1194941,44.9506979 C43.1194941,45.9339513 42.3180352,46.7339669 41.3328613,46.7339669 L28.634377,46.7339669 C27.6476543,46.7339669 26.8477441,47.5323177 26.8477441,48.517117 C26.8477441,49.5020351 27.6476543,50.300386 28.634377,50.300386 L42.5302246,50.300386 C44.0125723,50.300386 45.4420215,49.6795653 46.4524531,48.5970234 L54.3184746,40.1692729 C54.6606465,39.8027973 55.1250566,39.6010097 55.6264004,39.6010097 C56.6115742,39.6010097 57.4131523,40.4010253 57.4131523,41.3842788 C57.4131523,41.7732281 57.2901992,42.1423197 57.0576367,42.4518382 C57.0576367,42.4519571 57.0575176,42.4519571 57.0573984,42.452076 L48.4795117,53.8670429 Z M9.17192188,57.433462 L3.57350391,57.433462 L3.57350391,39.6011287 L9.17192188,39.6011287 C10.1570957,39.6011287 10.9586738,40.4011442 10.9586738,41.3843977 L10.9586738,55.650193 C10.9586738,56.6334464 10.1572148,57.433462 9.17192188,57.433462 Z M60.9865371,41.3843977 C60.9865371,38.4345185 58.5819219,36.0347096 55.6264004,36.0347096 C54.1441719,36.0347096 52.7143652,36.655768 51.7036953,37.7385478 L46.452334,43.3649357 C45.7735898,41.1870097 43.735332,39.6011287 41.3327422,39.6011287 L33.0786797,39.6011287 C31.9231348,39.6011287 30.8088125,39.181501 29.9412305,38.4195361 C25.2753262,34.3214776 18.2619941,34.2854483 13.5517695,38.3063353 C12.5802969,36.9336569 10.9798809,36.0348285 9.17180273,36.0348285 L1.78675195,36.0348285 C0.800029297,36.0348285 0,36.8331793 0,37.8179786 L0,59.216731 C0,60.2015302 0.800029297,61 1.78675195,61 L9.17180273,61 C10.7763887,61 12.2175137,60.2916628 13.2006621,59.1729727 L14.25875,59.4698869 C17.878123,60.4852456 21.619377,61 25.3788594,61 L41.332623,61 C45.2481797,61 48.9885996,59.1333762 51.3381719,56.0069181 L59.9161777,44.5921891 C59.9162969,44.5919513 59.916416,44.5917135 59.9166543,44.5914756 C60.6166055,43.6598285 60.9865371,42.5510078 60.9865371,41.3843977 Z" id="Fill-3" fill="#FFFFFF" mask="url(#mask-3)"></path>
                </g>
            </g>
        </g>
    </g>
</svg>