<?xml version="1.0" encoding="UTF-8"?>
<svg width="396px" height="357px" viewBox="0 0 396 357" version="1.1" xmlns="http://www.w3.org/2000/svg" xmlns:xlink="http://www.w3.org/1999/xlink">
    <!-- Generator: Sketch 50 (54983) - http://www.bohemiancoding.com/sketch -->
    <title>Fill 1</title>
    <desc>Created with Sketch.</desc>
    <defs>
        <linearGradient x1="0%" y1="0%" x2="110.35421%" y2="122.826364%" id="linearGradient-1">
            <stop stop-color="#FDA23F" offset="0%"></stop>
            <stop stop-color="#F3646F" offset="100%"></stop>
        </linearGradient>
        <path d="M978.53416,272.195587 L923.910805,442.542001 C921.271178,450.650911 920.013325,458.844178 920,466.885865 C920.061294,502.440112 944.091093,534.766348 980.492893,544.253983 L1162.03553,591.461492 C1176.33193,595.087041 1190.92617,594.741853 1204.45361,590.983017 C1225.39148,585.165067 1243.77359,571.169023 1254.53973,551.060616 L1306.70334,452.751951 C1312.94864,440.866705 1315.96136,428.111516 1316,415.518454 C1315.91872,389.102547 1303.22959,363.933557 1280.14451,348.602815 L1100.55927,229.838661 C1086.58831,220.426157 1070.98906,216.035589 1055.66297,216 C1021.6263,216.072495 989.32585,237.158032 978.53416,272.195587 Z" id="path-2"></path>
        <filter x="-3.8%" y="-4.0%" width="107.6%" height="107.9%" filterUnits="objectBoundingBox" id="filter-3">
            <feOffset dx="0" dy="0" in="SourceAlpha" result="shadowOffsetOuter1"></feOffset>
            <feGaussianBlur stdDeviation="5" in="shadowOffsetOuter1" result="shadowBlurOuter1"></feGaussianBlur>
            <feColorMatrix values="0 0 0 0 0   0 0 0 0 0   0 0 0 0 0  0 0 0 0.1 0" type="matrix" in="shadowBlurOuter1"></feColorMatrix>
        </filter>
    </defs>
    <g id="-----Flow-3---1440px" stroke="none" stroke-width="1" fill="none" fill-rule="evenodd">
        <g id="009-Doneer---Profiel-goed-doel-01" transform="translate(-922.000000, -246.000000)">
            <g id="Fill-1" transform="translate(1118.000000, 405.000000) rotate(-27.000000) translate(-1118.000000, -405.000000) ">
                <use fill="black" fill-opacity="1" filter="url(#filter-3)" xlink:href="#path-2"></use>
                <use fill="url(#linearGradient-1)" fill-rule="evenodd" xlink:href="#path-2"></use>
            </g>
        </g>
    </g>
</svg>