<?xml version="1.0" encoding="UTF-8"?>
<svg width="35px" height="35px" viewBox="0 0 35 35" version="1.1" xmlns="http://www.w3.org/2000/svg" xmlns:xlink="http://www.w3.org/1999/xlink">
    <!-- Generator: Sketch 50 (54983) - http://www.bohemiancoding.com/sketch -->
    <title>Fill 1</title>
    <desc>Created with Sketch.</desc>
    <defs></defs>
    <g id="-----Flow-3---1440px" stroke="none" stroke-width="1" fill="none" fill-rule="evenodd">
        <g id="009-Doneer---Profiel-goed-doel-01" transform="translate(-33.000000, -471.000000)" fill="#FFFFFF">
            <path d="M50.500318,473.014542 C59.0363046,473.014542 65.9854578,479.963695 65.9854578,488.500318 C65.9854578,492.407055 64.5204634,495.98859 62.1293391,498.715471 C55.5566408,496.802292 55.3022794,494.482771 55.3022794,494.451866 L55.3022794,494.50312 L55.2313126,494.50312 C55.3535333,494.380899 55.4752452,494.258678 55.5974658,494.126538 C58.3954411,490.982758 57.9274162,485.600471 57.8767982,485.071399 C57.6019608,479.454973 53.7458421,477.460906 50.5206669,477.460906 L50.1947027,477.460906 C46.9695275,477.460906 43.1033616,479.454973 42.8385714,485.071399 C42.7879534,485.590042 42.3298486,490.972329 45.1179038,494.126538 C45.2804407,494.309805 45.453788,494.482771 45.6266266,494.645689 C45.4130902,495.235426 44.3344707,497.10778 38.8706609,498.705043 C36.4696165,495.978161 35.0145422,492.407055 35.0145422,488.500318 C35.0145422,479.963695 41.9636954,473.014542 50.500318,473.014542 M44.8431935,485.264587 L44.8431935,485.20354 C45.087126,479.902649 48.9944985,479.485369 50.1947027,479.485369 L50.5206669,479.485369 C51.710951,479.485369 55.6282436,479.902649 55.8721761,485.20354 L55.8721761,485.264587 C55.882605,485.315332 56.3808989,490.219674 54.0916464,492.793557 C53.1859927,493.811002 51.9752325,494.319725 50.3984462,494.330154 L50.3372723,494.330154 C48.7500572,494.309805 47.5492171,493.811002 46.6440721,492.793557 C44.3443908,490.240023 44.8327647,485.315332 44.8431935,485.264587 M50.500318,503.985585 C46.6948172,503.985585 43.1948045,502.601986 40.4987009,500.312734 C45.0365081,498.806914 46.7151661,496.975131 47.3356807,495.754578 C48.2006366,496.13116 49.1673371,496.334267 50.2355277,496.344696 L50.469413,496.344696 C51.6294282,496.324347 52.6772699,496.090335 53.5829236,495.652706 C54.1626132,496.873895 55.8110022,498.766089 60.4809501,500.312734 C57.7952754,502.601986 54.3051828,503.985585 50.500318,503.985585 M37.9243093,500.658411 C41.1092955,503.94476 45.5655798,506 50.500318,506 C60.1455747,506 68,498.145702 68,488.500318 C68,478.854934 60.1455747,471 50.500318,471 C40.8549341,471 33,478.854934 33,488.500318 C33,493.099172 34.7904498,497.290666 37.7007257,500.414478 C37.7617724,500.515841 37.8427865,500.587444 37.9243093,500.658411" id="Fill-1"></path>
        </g>
    </g>
</svg>