<?xml version="1.0" encoding="UTF-8"?>
<svg width="28px" height="28px" viewBox="0 0 28 28" version="1.1" xmlns="http://www.w3.org/2000/svg" xmlns:xlink="http://www.w3.org/1999/xlink">
    <!-- Generator: Sketch 50 (54983) - http://www.bohemiancoding.com/sketch -->
    <title>Fill 1</title>
    <desc>Created with Sketch.</desc>
    <defs></defs>
    <g id="-----Flow-3---1440px" stroke="none" stroke-width="1" fill="none" fill-rule="evenodd">
        <g id="009-Doneer---Profiel-goed-doel-01" transform="translate(-1209.000000, -31.000000)" fill="#F88356">
            <path d="M1223.00025,32.6116338 C1229.82904,32.6116338 1235.38837,38.1709563 1235.38837,45.0002544 C1235.38837,48.1256436 1234.21637,50.9908721 1232.30347,53.1723771 C1227.04531,51.6418337 1226.84182,49.7862165 1226.84182,49.7614926 L1226.84182,49.8024956 L1226.78505,49.8024956 C1226.88283,49.7047191 1226.9802,49.6069426 1227.07797,49.50123 C1229.31635,46.9862063 1228.94193,42.6803767 1228.90144,42.2571194 C1228.68157,37.7639781 1225.59667,36.1687252 1223.01653,36.1687252 L1222.75576,36.1687252 C1220.17562,36.1687252 1217.08269,37.7639781 1216.87086,42.2571194 C1216.83036,42.6720337 1216.46388,46.9778633 1218.69432,49.50123 C1218.82435,49.6478439 1218.96303,49.7862165 1219.1013,49.9165513 C1218.93047,50.3883408 1218.06758,51.8862242 1213.69653,53.164034 C1211.77569,50.982529 1210.61163,48.1256436 1210.61163,45.0002544 C1210.61163,38.1709563 1216.17096,32.6116338 1223.00025,32.6116338 M1218.47455,42.4116694 L1218.47455,42.362832 C1218.6697,38.1221189 1221.7956,37.788295 1222.75576,37.788295 L1223.01653,37.788295 C1223.96876,37.788295 1227.10259,38.1221189 1227.29774,42.362832 L1227.29774,42.4116694 C1227.30608,42.4522655 1227.70472,46.375739 1225.87332,48.4348453 C1225.14879,49.2488018 1224.18019,49.65578 1222.91876,49.6641231 L1222.86982,49.6641231 C1221.60005,49.6478439 1220.63937,49.2488018 1219.91526,48.4348453 C1218.07551,46.3920181 1218.46621,42.4522655 1218.47455,42.4116694 M1223.00025,57.388468 C1219.95585,57.388468 1217.15584,56.281589 1214.99896,54.450187 C1218.62921,53.2455314 1219.97213,51.7801046 1220.46854,50.8036621 C1221.16051,51.1049277 1221.93387,51.2674138 1222.78842,51.2757568 L1222.97553,51.2757568 C1223.90354,51.2594777 1224.74182,51.0722677 1225.46634,50.7221647 C1225.93009,51.6991159 1227.2488,53.2128714 1230.98476,54.450187 C1228.83622,56.281589 1226.04415,57.388468 1223.00025,57.388468 M1212.93945,54.7267287 C1215.48744,57.355808 1219.05246,59 1223.00025,59 C1230.71646,59 1237,52.7165615 1237,45.0002544 C1237,37.2839473 1230.71646,31 1223.00025,31 C1215.28395,31 1209,37.2839473 1209,45.0002544 C1209,48.6793375 1210.43236,52.0325328 1212.76058,54.5315826 C1212.80942,54.612673 1212.87423,54.6699552 1212.93945,54.7267287" id="Fill-1"></path>
        </g>
    </g>
</svg>