<?xml version="1.0" encoding="UTF-8"?>
<svg width="37px" height="37px" viewBox="0 0 37 37" version="1.1" xmlns="http://www.w3.org/2000/svg" xmlns:xlink="http://www.w3.org/1999/xlink">
    <!-- Generator: Sketch 50 (54983) - http://www.bohemiancoding.com/sketch -->
    <title>Group 6</title>
    <desc>Created with Sketch.</desc>
    <defs>
        <polygon id="path-1" points="0 0 19 0 19 15 0 15"></polygon>
    </defs>
    <g id="-----Flow-3---1440px" stroke="none" stroke-width="1" fill="none" fill-rule="evenodd">
        <g id="009-Doneer---Profiel-goed-doel-01" transform="translate(-32.000000, -370.000000)">
            <g id="Group-6" transform="translate(33.000000, 371.000000)">
                <circle id="Oval-2" stroke="#FFFFFF" stroke-width="1.7578125" cx="17.5" cy="17.5" r="17.5"></circle>
                <g id="Group" transform="translate(8.000000, 10.000000)">
                    <mask id="mask-2" fill="white">
                        <use xlink:href="#path-1"></use>
                    </mask>
                    <g id="Clip-2"></g>
                    <path d="M2.51399425,1.48481585 C1.97419706,1.48481585 1.53500418,1.90964893 1.53500418,2.43179697 L1.53500418,12.568203 C1.53500418,13.0903511 1.97419706,13.5151841 2.51399425,13.5151841 L16.4860058,13.5151841 C17.0258029,13.5151841 17.4649958,13.0903511 17.4649958,12.568203 L17.4649958,2.43179697 C17.4649958,1.90964893 17.0258029,1.48481585 16.4860058,1.48481585 L2.51399425,1.48481585 Z M16.4860058,15 L2.51399425,15 C1.12776272,15 0,13.9090746 0,12.568203 L0,2.43179697 C0,1.09092541 1.12779983,0 2.51399425,0 L16.4860058,0 C17.8722373,0 19,1.09092541 19,2.43179697 L19,12.568203 C19,13.9090746 17.8722373,15 16.4860058,15 Z" id="Fill-1" fill="#FFFFFF" mask="url(#mask-2)"></path>
                    <path d="M9.50001642,9.20454545 C9.3460123,9.20454545 9.19204529,9.15920059 9.05989863,9.06847447 L0.327456808,3.07389087 C-0.019813206,2.83552101 -0.104274261,2.36620532 0.138792483,2.02568214 C0.381896336,1.68512256 0.860422392,1.60225719 1.20769241,1.84069984 L9.49997931,7.53311779 L17.7923033,1.84069984 C18.1396847,1.60229358 18.6181736,1.68512256 18.8612033,2.02568214 C19.10427,2.36620532 19.0198089,2.83552101 18.6726132,3.07389087 L9.94017133,9.06847447 C9.80802466,9.15920059 9.65398343,9.20454545 9.50001642,9.20454545" id="Fill-3" fill="#FFFFFF" mask="url(#mask-2)"></path>
                </g>
            </g>
        </g>
    </g>
</svg>