<?xml version="1.0" encoding="UTF-8"?>
<svg width="149px" height="147px" viewBox="0 0 149 147" version="1.1" xmlns="http://www.w3.org/2000/svg" xmlns:xlink="http://www.w3.org/1999/xlink">
    <!-- Generator: Sketch 50 (54983) - http://www.bohemiancoding.com/sketch -->
    <title>Group 9</title>
    <desc>Created with Sketch.</desc>
    <defs>
        <linearGradient x1="0%" y1="0%" x2="110.35421%" y2="122.826364%" id="linearGradient-1">
            <stop stop-color="#FDA23F" offset="0%"></stop>
            <stop stop-color="#F3646F" offset="100%"></stop>
        </linearGradient>
        <polygon id="path-2" points="0 0.0515829493 58.8627088 0.0515829493 58.8627088 61 0 61"></polygon>
    </defs>
    <g id="-----Flow-3---1440px" stroke="none" stroke-width="1" fill="none" fill-rule="evenodd">
        <g id="009-Doneer---Profiel-goed-doel-01" transform="translate(-165.000000, -1077.000000)">
            <g id="Group-9" transform="translate(165.000000, 1077.000000)">
                <path d="M149,142 L149,25.1200906 C131.695015,15.8562068 112.113367,8.15224813 90.2550579,2.00821474 C43.2623255,-11.2007169 14.3555422,43.3149945 1.8075328,90.4316097 C-5.16322163,116.606148 8.02807191,135.462278 41.3814134,147 L144,147 C146.761424,147 149,144.761424 149,142 Z" id="Oval-5" fill="url(#linearGradient-1)" transform="translate(74.500000, 73.500000) rotate(-180.000000) translate(-74.500000, -73.500000) "></path>
                <g id="Group" transform="translate(39.000000, 37.000000)">
                    <g id="Group-3">
                        <mask id="mask-3" fill="white">
                            <use xlink:href="#path-2"></use>
                        </mask>
                        <g id="Clip-2"></g>
                        <path d="M53.2668616,58.0627235 L5.59556563,58.0627235 C3.97721957,58.0627235 2.94718377,56.3736982 2.94718377,54.758182 L2.94718377,23.5497949 L55.9153842,23.5497949 L55.9153842,54.758182 C55.9153842,56.3736982 54.8853484,58.0627235 53.2668616,58.0627235 Z M5.59556563,9.59766129 L10.3038783,9.59766129 L10.3038783,11.2131774 C10.3038783,12.8286935 11.8488616,14.003576 13.4673484,14.003576 L17.8077208,14.003576 C19.3104606,14.0447581 20.5621337,12.8621452 20.6032506,11.3621636 C20.6046587,11.3125484 20.6046587,11.2627926 20.6032506,11.2131774 L20.6032506,9.59766129 L38.2593174,9.59766129 L38.2593174,11.2131774 C38.2180597,12.713159 39.4029881,13.9625346 40.9057279,14.003576 C40.9554344,14.0049816 41.0051408,14.0049816 41.0548473,14.003576 L45.3952196,14.003576 C47.0137064,14.003576 48.5586897,12.8286935 48.5586897,11.2131774 L48.5586897,9.59766129 L53.2668616,9.59766129 C54.6455465,9.51094009 55.8337136,10.5562327 55.9205943,11.9323871 C55.9286205,12.0597281 55.9269308,12.1876313 55.9153842,12.3146912 L55.9153842,20.6125184 L2.94718377,20.6125184 L2.94718377,12.3146912 C2.82256563,10.9414885 3.83683055,9.72739171 5.21269928,9.6030023 C5.33999284,9.59147696 5.46799045,9.58964977 5.59556563,9.59766129 Z M13.4673484,11.0662995 L17.6605728,11.0662995 L17.6605728,2.98885945 L13.4673484,2.98885945 L13.4673484,11.0662995 Z M41.0548473,11.0662995 L45.6160119,11.0662995 L45.6160119,2.98885945 L41.0548473,2.98885945 L41.0548473,11.0662995 Z M53.2668616,6.66038479 L48.5586897,6.66038479 L48.5586897,2.62173502 C48.5586897,1.00621889 47.0137064,0.0515829493 45.3952196,0.0515829493 L41.0548473,0.0515829493 C39.4363604,0.0515829493 38.2593174,1.00621889 38.2593174,2.62173502 L38.2593174,6.66038479 L20.6032506,6.66038479 L20.6032506,2.62173502 C20.6032506,1.00621889 19.4262076,0.0515829493 17.8077208,0.0515829493 L13.4673484,0.0515829493 C11.8488616,0.0515829493 10.3038783,1.00621889 10.3038783,2.62173502 L10.3038783,6.66038479 L5.59556563,6.66038479 C2.59022673,6.57675576 0.0858949881,8.9409977 0.00211217184,11.9408203 C-0.00140811456,12.0654908 -0.000563245823,12.1901613 0.00450596659,12.3146912 L0.00450596659,54.758182 C0.00450596659,57.9892143 2.3587327,61 5.59556563,61 L53.2668616,61 C56.5038353,61 58.8580621,57.9892143 58.8580621,54.758182 L58.8580621,12.3146912 C58.9811313,9.31613364 56.6454916,6.78575806 53.64142,6.66291475 C53.5166611,6.65785484 53.3917613,6.65701152 53.2668616,6.66038479 Z" id="Fill-1" fill="#FFFFFF" mask="url(#mask-3)"></path>
                    </g>
                    <path d="M28.6955442,45.8729839 L29.3577804,46.0198618 L33.9924487,48.5165046 L33.1095609,43.3028318 C33.0376062,42.8172212 33.2015107,42.3264101 33.5510048,41.9810714 L37.302926,38.3829147 L32.0796659,37.6486659 C31.6176635,37.5796544 31.2262076,37.2726866 31.0497709,36.8409078 L28.6955442,32.1412373 L26.3414582,36.8409078 C26.1648807,37.2726866 25.7735656,37.5796544 25.3115632,37.6486659 L20.0883031,38.3829147 L23.8402243,41.9810714 C24.1897184,42.3264101 24.3536229,42.8172212 24.2816683,43.3028318 L23.3987804,48.5165046 L28.0334487,46.0198618 L28.6955442,45.8729839 Z M35.9787351,52.6286636 L35.3166396,52.4819263 L28.6955442,49.0305069 L22.0745895,52.4819263 C21.3546205,52.8579055 20.465537,52.5800323 20.0888663,51.8612442 C19.9405919,51.5783111 19.8887733,51.2547581 19.9411551,50.9397788 L21.2653461,43.5965876 L15.8949379,38.456424 C15.5108043,38.0419332 15.3712601,37.4572327 15.5271384,36.9142765 C15.7252601,36.4125023 16.1716325,36.0505783 16.7041814,35.9597811 L24.0608759,34.8582673 L27.3713532,28.1759562 C27.7256348,27.445924 28.6055656,27.1407834 29.3369403,27.4944147 C29.6348974,27.638341 29.8755442,27.8785461 30.0198759,28.1759562 L33.3303532,34.8582673 L40.6870477,35.9597811 C41.2195967,36.0505783 41.665969,36.4125023 41.8640907,36.9142765 C42.019969,37.4572327 41.8804248,38.0419332 41.4962912,38.456424 L36.1258831,43.5965876 L37.450074,50.9397788 C37.5276611,51.4776751 37.3012363,52.014447 36.8614821,52.3350484 C36.6095704,52.5306982 36.2979547,52.6342857 35.9787351,52.6286636 Z" id="Fill-4" fill="#FFFFFF"></path>
                </g>
            </g>
        </g>
    </g>
</svg>