<svg id="Laag_1" data-name="Laag 1" xmlns="http://www.w3.org/2000/svg" viewBox="0 0 485.57 148.5"><defs><style>.cls-1{fill:#df0059;}</style></defs><title>logo tear</title><path class="cls-1" d="M555.06,303.72c-.82,14.77-.65,29.74-7.17,43.55-8.1,17.16-21.95,26.28-40.59,28.31-9.88,1.07-19.66.5-28.86-3.8-13.77-6.44-21.64-17-21.62-32.47,0-15.15,8.44-25.22,21.76-30.56,9.64-3.88,20.09-5.75,30.19-8.42,2.89-.77,5.9-1.11,8.79-1.88,5.25-1.4,6.8-5.15,4-9.91-3.74-6.36-10.16-8-16.76-8.1-13-.27-25.39,3.36-35.56,11.26a403.29,403.29,0,0,0-35.09,31c-13.67,13.45-26.62,27.61-43.07,37.84-17.58,10.92-36.46,16.75-57.4,15.12-22.32-1.73-40.37-17-43.71-39.18-2.69-17.76-1.64-35.77,4.18-52.88,9.18-26.95,34.87-36.69,58.7-33,14.58,2.24,26.31,8.88,32,23.1,7.47,18.63-1.61,37.58-21.84,44.65-10.62,3.71-21.87,5.66-32.85,8.32-3.51.84-7.7.61-8.55,5.37-.89,5,1.91,8.34,5.94,10.55,8.33,4.54,17.2,3.41,25.85,1.45,16.33-3.69,29.27-13.43,41-24.75,10.06-9.72,19.44-20.13,29.28-30.09,14.76-15,31-27.86,51.25-34.67,16.09-5.42,32.47-7.36,49-1.56,18.59,6.52,30.19,22.07,31.12,41.75C555.19,297.71,555.06,300.72,555.06,303.72Zm-231.22-3.41c9.39-1.91,19.06-2.2,27.44-7.55,3.29-2.1,4.94-5.72,3.33-9.05-1.23-2.57-4.23-5.32-6.92-6C334.41,274.63,322.9,285.35,323.84,300.31Zm196.28,24.85c-8.39,2.14-16.46,3.86-24.29,6.34-4.28,1.36-7.36,4.67-7,9.76.35,4.58,3.75,6.49,7.61,7.4C509.06,351.63,521.88,339.64,520.12,325.16Z" transform="translate(-175.72 -227.55)"/><path class="cls-1" d="M256.15,299.16c-12.57-.18-12.5-.17-13.45,12.14q-1.83,23.65-3.86,47.29a17.58,17.58,0,0,1-25,14.54c-5.87-2.82-8.34-7.9-7.86-14.37q1.68-22.9,3.42-45.82c.24-3.32.47-6.64.78-10,.28-3-.93-4.19-4-4.08-5,.18-10,.19-15,0-9.7-.42-15.11-5.26-15.41-13.5-.34-9.6,5.27-16.47,14.8-17.35a143.38,143.38,0,0,1,17.47-.22c3.38.11,4.84-.95,5-4.41.32-6.49.86-13,1.49-19.42,1.24-12.68,12.25-19.49,24.22-15.09,6.29,2.3,9.36,7.32,8.86,14.52-.45,6.48-.79,13-1.45,19.42-.35,3.44.69,4.93,4.28,4.85,5.49-.12,11-.15,16.48.15,8.47.46,14,5.9,14.35,13.69.38,8.77-5.25,15.87-13.63,16.91C263.82,298.9,260,298.93,256.15,299.16Z" transform="translate(-175.72 -227.55)"/><path class="cls-1" d="M635.42,251.64c4.3.87,10.86,1.41,16.82,3.59,7,2.56,9.64,8,8.94,15a13.47,13.47,0,0,1-11.95,12.26c-7.7,1.08-15.59.75-23.35,1.49-9,.86-14.79,6.94-15.69,15.93-.48,4.8-1,9.6-1.35,14.42-1,13.94-1.88,27.89-2.81,41.83-.83,12.38-7.12,18.68-18.36,18.4-9-.23-14.49-5.38-14.31-14.38.19-9.81,1.12-19.6,1.82-29.39.84-11.78,1.8-23.56,2.68-35.34,1.74-23.36,17.35-39.67,40.46-42.2C623.28,252.7,628.25,252.31,635.42,251.64Z" transform="translate(-175.72 -227.55)"/></svg>